<svg width="310" height="449" viewBox="0 0 310 449" fill="none" xmlns="http://www.w3.org/2000/svg">
<path d="M273.972 417.9C273.972 417.9 241.872 433.7 185.072 424C185.072 424 217.172 422.4 234.572 418.7C255.172 414.4 271.772 417.3 273.972 417.9Z" fill="url(#paint0_linear)"/>
<path d="M260.571 405.8C260.571 405.8 189.171 425.1 125.671 399C125.671 399 160.571 411.8 197.171 406.2C233.771 400.5 253.271 402.7 260.571 405.8Z" fill="url(#paint1_linear)"/>
<path d="M248.371 394.5C248.371 394.5 155.771 403.7 104.771 357.8C104.771 357.8 135.371 381.2 186.471 383.4C237.471 385.7 248.371 394.5 248.371 394.5Z" fill="url(#paint2_linear)"/>
<path d="M231.472 376.5C231.472 376.5 155.472 380.1 102.372 344.7C102.372 344.7 148.372 361.5 186.772 365.2C211.272 367.5 231.472 376.5 231.472 376.5Z" fill="url(#paint3_linear)"/>
<path d="M75.5718 311.3C75.5718 311.3 134.572 360 220.972 362.3C220.972 362.3 192.272 347 152.472 340.6C112.672 334.3 75.5718 311.3 75.5718 311.3Z" fill="url(#paint4_linear)"/>
<path d="M69.0718 294.3C69.0718 294.3 116.972 338.2 205.772 344.6C205.772 344.6 179.572 329.4 153.472 325.3C127.372 321.1 101.472 315.7 69.0718 294.3Z" fill="url(#paint5_linear)"/>
<path d="M62.8716 274C62.8716 274 128.672 329.5 190.072 325C190.072 325 168.072 312.6 132.372 304.9C96.6716 297.2 62.8716 274 62.8716 274Z" fill="url(#paint6_linear)"/>
<path d="M53.7715 255.9C53.7715 255.9 114.271 299.9 175.871 307C175.871 307 158.371 293.5 123.371 283.8C88.3715 274.1 64.5715 262.4 53.7715 255.9Z" fill="url(#paint7_linear)"/>
<path d="M30.4717 222.7C30.4717 222.7 88.9717 278.2 159.272 283.3C159.272 283.3 145.372 272.7 121.372 266.4C97.2717 260 61.2717 244.4 30.4717 222.7Z" fill="url(#paint8_linear)"/>
<path d="M7.07178 189C7.07178 189 77.0718 258.1 149.772 266C149.772 266 128.172 251 109.872 245.8C91.5718 240.6 48.3718 222.9 7.07178 189Z" fill="url(#paint9_linear)"/>
<path d="M9.77148 158.1C9.77148 158.1 52.0715 226.8 140.271 250.7C140.271 250.7 139.071 245.1 101.871 226.9C64.6715 208.7 43.0715 195.3 9.77148 158.1Z" fill="url(#paint10_linear)"/>
<path d="M23.1714 157.2C23.1714 157.2 92.5714 226.9 132.071 235.3C132.071 235.3 120.071 220.3 90.3714 203.8C60.6714 187.4 52.6714 182.2 23.1714 157.2Z" fill="url(#paint11_linear)"/>
<path d="M1.27148 112.9C1.27148 112.9 77.5715 203.2 121.371 218.4C121.371 218.4 93.0715 191.4 67.5715 174.2C41.9715 157.1 1.27148 112.9 1.27148 112.9Z" fill="url(#paint12_linear)"/>
<path d="M4.07178 98.8C4.07178 98.8 68.7718 181.1 116.872 203.7C116.872 203.7 105.972 190.9 81.3718 170.3C56.7718 149.7 29.1718 126.1 4.07178 98.8Z" fill="url(#paint13_linear)"/>
<path d="M11.0718 75.7001C11.0718 75.7001 41.5718 134 107.472 183.2C107.472 183.2 93.0718 164.7 74.7718 145.1C56.4718 125.5 33.5718 112.4 11.0718 75.7001Z" fill="url(#paint14_linear)"/>
<path d="M273.972 417.9C273.972 417.9 244.572 433.7 185.372 424.1C185.372 424.1 219.472 425.7 240.172 421.9C253.572 419.5 268.472 418.7 273.972 417.9Z" fill="#39B54A"/>
<path d="M260.872 405.9C260.872 405.9 189.472 425.2 125.972 399.1C125.972 399.1 151.072 410.8 202.472 409C232.072 408 245.372 407 260.872 405.9Z" fill="#39B54A"/>
<path d="M248.771 394.6C248.771 394.6 155.871 403.7 104.771 357.8C104.771 357.8 135.571 381.9 186.371 387.3C226.571 391.5 248.771 394.6 248.771 394.6Z" fill="#39B54A"/>
<path d="M231.772 376.6C231.772 376.6 155.372 380.1 102.372 344.7C102.372 344.7 135.772 362.1 186.472 369.4C205.772 372.2 231.772 376.6 231.772 376.6Z" fill="#39B54A"/>
<path d="M75.5718 311.3C75.5718 311.3 134.872 360.1 221.272 362.4C221.272 362.4 187.272 354.4 154.672 346.1C115.672 336.2 75.5718 311.3 75.5718 311.3Z" fill="#39B54A"/>
<path d="M69.0718 294.3C69.0718 294.3 116.972 338.2 205.772 344.6C205.772 344.6 178.972 334.7 152.872 330.6C126.772 326.5 101.472 315.7 69.0718 294.3Z" fill="#39B54A"/>
<path d="M63.1714 274.1C63.1714 274.1 128.971 329.6 190.371 325.1C190.371 325.1 174.471 321.5 140.971 313C96.1714 301.6 63.1714 274.1 63.1714 274.1Z" fill="#39B54A"/>
<path d="M54.1714 256C54.1714 256 114.671 300 176.271 307.1C176.271 307.1 153.571 298.8 122.671 288.5C88.1714 276.9 64.8714 262.5 54.1714 256Z" fill="#39B54A"/>
<path d="M30.7715 222.8C30.7715 222.8 89.2715 278.3 159.571 283.4C159.571 283.4 143.771 276.9 119.671 270.7C86.2715 262.3 61.5715 244.5 30.7715 222.8Z" fill="#39B54A"/>
<path d="M7.47168 189.1C7.47168 189.1 77.4717 258.2 150.172 266.1C150.172 266.1 126.272 256.1 107.972 250.9C89.5717 245.7 48.7717 223 7.47168 189.1Z" fill="#39B54A"/>
<path d="M9.77148 158.1C9.77148 158.1 52.3715 226.9 140.571 250.8C140.571 250.8 136.971 248.9 99.6715 230.7C62.3715 212.5 36.1715 191.9 9.77148 158.1Z" fill="#39B54A"/>
<path d="M23.1714 157.2C23.1714 157.2 92.5714 226.9 132.071 235.3C132.071 235.3 122.471 228.2 95.1714 212.4C64.7714 194.8 52.6714 182.2 23.1714 157.2Z" fill="#39B54A"/>
<path d="M0.371582 111.8C0.371582 111.8 76.6716 202.1 120.472 217.3C120.472 217.3 99.7716 203 71.2716 180.6C47.0716 161.7 0.371582 111.8 0.371582 111.8Z" fill="#39B54A"/>
<path d="M4.07178 98.8C4.07178 98.8 68.7718 181.1 116.872 203.7C116.872 203.7 103.972 193.8 79.3718 173.3C54.7718 152.8 29.1718 126.1 4.07178 98.8Z" fill="#39B54A"/>
<path d="M11.0718 75.7001C11.0718 75.7001 41.3718 133.7 107.272 182.9C107.272 182.9 88.8718 167.1 70.6718 147.5C52.4718 127.9 33.5718 112.4 11.0718 75.7001Z" fill="#39B54A"/>
<path d="M14.1714 50.9001C14.1714 50.9001 55.7714 120.1 94.2714 149.7C94.2714 149.7 78.3714 125.7 64.5714 110.2C50.7714 94.7001 29.1714 73.9001 14.1714 50.9001Z" fill="url(#paint15_linear)"/>
<path d="M14.1714 50.9001C14.1714 50.9001 55.7714 120.1 94.2714 149.7C94.2714 149.7 75.5714 131.5 61.5714 113.6C48.8714 97.3001 29.1714 73.9001 14.1714 50.9001Z" fill="#39B54A"/>
<path d="M27.9717 28.6001C27.9717 28.6001 48.3717 90.5001 85.9717 125.4C85.9717 125.4 82.5717 118.2 71.2717 100.5C59.9717 82.8001 41.0717 63.5001 27.9717 28.6001Z" fill="url(#paint16_linear)"/>
<path d="M27.9717 28.6001C27.9717 28.6001 48.3717 90.5001 85.9717 125.4C85.9717 125.4 77.6717 117 66.3717 99.3001C55.0717 81.6001 41.0717 63.5001 27.9717 28.6001Z" fill="#39B54A"/>
<path d="M83.9717 20.2001C83.9717 20.2001 100.872 99.2 93.0717 147.1C93.0717 147.1 88.2717 118.7 87.7717 98.0001C87.2717 77.3001 88.6717 47.3001 83.9717 20.2001Z" fill="url(#paint17_linear)"/>
<path d="M83.9717 20.2001C83.9717 20.2001 100.872 99.2 93.0717 147.1C93.0717 147.1 94.2717 121 92.2717 98.4001C90.3717 77.8001 88.6717 47.3001 83.9717 20.2001Z" fill="#39B54A"/>
<path d="M67.7715 0.800049C67.7715 0.800049 93.4715 64.2001 83.1715 114.2C83.1715 114.2 81.1715 106.3 78.9715 85.2001C76.7715 64.1001 80.6715 37.4 67.7715 0.800049Z" fill="url(#paint18_linear)"/>
<path d="M67.7715 0.800049C67.7715 0.800049 93.4715 64.2001 83.1715 114.2C83.1715 114.2 84.9715 102.6 82.7715 81.4001C80.5715 60.2001 80.6715 37.4 67.7715 0.800049Z" fill="#39B54A"/>
<path d="M82.8715 114.5C82.8715 114.5 54.1715 65.5 45.2715 5.30005C45.2715 5.30005 77.8715 76.3001 82.8715 114.5Z" fill="url(#paint19_linear)"/>
<path d="M82.8715 114.5C82.8715 114.5 54.1715 65.5 45.2715 5.30005C45.2715 5.30005 65.3715 72.9001 82.8715 114.5Z" fill="#39B54A"/>
<path d="M272.872 417.6C272.872 417.6 292.572 387.7 290.072 330.1C290.072 330.1 284.472 361.8 278.672 378.6C271.672 398.6 272.472 415.4 272.872 417.6Z" fill="url(#paint20_linear)"/>
<path d="M272.872 417.6C272.872 417.6 292.172 390.4 290.172 330.5C290.172 330.5 287.472 364.5 281.172 384.6C276.972 397.6 274.272 412.3 272.872 417.6Z" fill="#39B54A"/>
<path d="M261.271 403.4C261.271 403.4 289.371 335 271.371 268.7C271.371 268.7 279.671 305 269.571 340.5C259.371 376.2 259.071 395.8 261.271 403.4Z" fill="url(#paint21_linear)"/>
<path d="M261.271 403.8C261.271 403.8 289.371 335.4 271.371 269.1C271.371 269.1 279.771 295.4 271.671 346.3C266.971 375.4 264.371 388.4 261.271 403.8Z" fill="#39B54A"/>
<path d="M250.872 391.7C250.872 391.7 281.072 303.7 248.072 243.5C248.072 243.5 263.872 278.6 254.272 328.9C244.772 379 250.872 391.7 250.872 391.7Z" fill="url(#paint22_linear)"/>
<path d="M250.872 392C250.872 392 281.072 303.6 248.072 243.4C248.072 243.4 264.472 278.9 258.072 329.6C252.972 369.7 250.872 392 250.872 392Z" fill="#39B54A"/>
<path d="M232.572 376.2C232.572 376.2 257.372 304.2 238.272 243.4C238.272 243.4 241.472 292.2 234.172 330.2C229.572 354.3 232.572 376.2 232.572 376.2Z" fill="url(#paint23_linear)"/>
<path d="M232.671 376.5C232.671 376.5 257.471 304.2 238.371 243.3C238.371 243.3 245.671 280.3 238.471 330.9C235.671 350.3 232.671 376.5 232.671 376.5Z" fill="#39B54A"/>
<path d="M208.572 206.4C208.572 206.4 240.972 275.6 221.772 359.9C221.772 359.9 214.072 328.3 217.872 288.1C221.572 248 208.572 206.4 208.572 206.4Z" fill="url(#paint24_linear)"/>
<path d="M208.572 206.4C208.572 206.4 241.072 276 221.772 360.3C221.772 360.3 222.572 325.4 222.672 291.7C222.672 251.4 208.572 206.4 208.572 206.4Z" fill="#39B54A"/>
<path d="M193.271 198.6C193.271 198.6 223.471 256.1 206.971 343.6C206.971 343.6 198.971 314.4 201.671 288.1C204.271 261.8 205.671 235.4 193.271 198.6Z" fill="url(#paint25_linear)"/>
<path d="M193.271 198.6C193.271 198.6 223.471 256.1 206.971 343.6C206.971 343.6 204.271 315.2 206.871 288.8C209.571 262.6 205.671 235.4 193.271 198.6Z" fill="#39B54A"/>
<path d="M181.372 185.7C181.372 185.7 213.872 265.4 190.772 322.4C190.772 322.4 185.772 297.7 189.472 261.3C193.172 224.9 181.372 185.7 181.372 185.7Z" fill="url(#paint26_linear)"/>
<path d="M181.372 186.1C181.372 186.1 213.872 265.8 190.772 322.8C190.772 322.8 192.272 306.6 194.372 272.1C197.272 225.9 181.372 186.1 181.372 186.1Z" fill="#39B54A"/>
<path d="M177.672 170.6C177.672 170.6 192.972 243.9 174.172 303C174.172 303 169.072 281.5 174.572 245.6C180.072 209.5 179.272 183.1 177.672 170.6Z" fill="url(#paint27_linear)"/>
<path d="M177.672 170.9C177.672 170.9 192.972 244.2 174.172 303.3C174.172 303.3 175.972 279.1 179.172 246.8C182.772 210.6 179.272 183.4 177.672 170.9Z" fill="#39B54A"/>
<path d="M168.572 140.4C168.572 140.4 189.372 218.4 160.172 282.5C160.172 282.5 157.572 265.3 163.472 241.1C169.372 216.9 172.872 177.8 168.572 140.4Z" fill="url(#paint28_linear)"/>
<path d="M168.472 140.8C168.472 140.8 189.272 218.8 160.072 282.9C160.072 282.9 161.872 265.9 168.072 241.8C176.672 208.3 172.872 178.2 168.472 140.8Z" fill="#39B54A"/>
<path d="M153.271 105.7C153.271 105.7 178.971 200.7 149.971 267.8C149.971 267.8 147.571 241.7 152.071 223.1C156.671 204.6 162.471 158.4 153.271 105.7Z" fill="url(#paint29_linear)"/>
<path d="M153.271 106.1C153.271 106.1 178.971 201.1 149.971 268.2C149.971 268.2 152.971 242.5 157.471 223.9C162.071 205.4 162.471 158.7 153.271 106.1Z" fill="#39B54A"/>
<path d="M133.771 89.9001C133.771 89.9001 167.671 163 139.071 249.8C139.071 249.8 135.071 245.7 140.471 204.6C145.871 163.5 146.371 138.1 133.771 89.9001Z" fill="url(#paint30_linear)"/>
<path d="M133.771 89.9001C133.771 89.9001 167.571 163.4 138.971 250.2C138.971 250.2 139.371 246.1 144.771 205C150.171 163.9 147.371 130.4 133.771 89.9001Z" fill="#39B54A"/>
<path d="M128.472 96.5C128.472 96.5 146.372 193.3 130.772 230.5C130.772 230.5 125.272 212.1 128.572 178.3C131.872 144.5 132.272 135 128.472 96.5Z" fill="url(#paint31_linear)"/>
<path d="M128.472 96.5C128.472 96.5 146.372 193.3 130.772 230.5C130.772 230.5 130.372 218.5 132.872 187.1C135.672 152.2 132.272 135 128.472 96.5Z" fill="#39B54A"/>
<path d="M109.072 59C109.072 59 136.572 174 122.772 218.3C122.772 218.3 117.872 179.5 119.172 148.8C120.472 118.1 109.072 59 109.072 59Z" fill="url(#paint32_linear)"/>
<path d="M109.072 59C109.072 59 136.572 174 122.772 218.3C122.772 218.3 123.472 193.1 122.472 156.9C121.572 126.2 109.072 59 109.072 59Z" fill="#39B54A"/>
<path d="M91.2715 24.6001C91.2715 24.6001 116.371 126.3 104.671 178.1C104.671 178.1 101.271 161.6 100.171 129.6C99.0715 97.6001 97.3715 61.3001 91.2715 24.6001Z" fill="url(#paint33_linear)"/>
<path d="M91.2715 24.6001C91.2715 24.6001 116.371 126.3 104.671 178.1C104.671 178.1 104.771 161.9 103.771 129.8C102.771 97.7001 97.3715 61.3001 91.2715 24.6001Z" fill="#39B54A"/>
<path d="M101.171 57C101.171 57 122.871 120.1 114.071 201.9C114.071 201.9 110.471 177.7 108.571 151.1C106.571 124.4 112.671 98.4 101.171 57Z" fill="url(#paint34_linear)"/>
<path d="M101.171 57C101.171 57 122.871 120.1 114.071 201.9C114.071 201.9 115.071 176.3 113.171 149.6C111.171 122.9 112.671 98.4 101.171 57Z" fill="#39B54A"/>
<path d="M299.372 448.1C299.372 448.1 119.072 292.1 82.5717 114.9C82.0717 112.6 82.9717 111.5 82.5717 109.2C82.5717 109.2 115.172 281.6 309.972 444.7L299.372 448.1Z" fill="url(#paint35_linear)"/>
<defs>
<linearGradient id="paint0_linear" x1="207.475" y1="444.789" x2="251.57" y2="397.163" gradientUnits="userSpaceOnUse">
<stop stop-color="#54B948"/>
<stop offset="0.3764" stop-color="#00A651"/>
<stop offset="1" stop-color="#005826"/>
</linearGradient>
<linearGradient id="paint1_linear" x1="163.722" y1="434.149" x2="222.603" y2="370.553" gradientUnits="userSpaceOnUse">
<stop stop-color="#54B948"/>
<stop offset="0.3764" stop-color="#00A651"/>
<stop offset="1" stop-color="#005826"/>
</linearGradient>
<linearGradient id="paint2_linear" x1="152.609" y1="402.054" x2="200.62" y2="350.199" gradientUnits="userSpaceOnUse">
<stop stop-color="#54B948"/>
<stop offset="0.3764" stop-color="#00A651"/>
<stop offset="1" stop-color="#005826"/>
</linearGradient>
<linearGradient id="paint3_linear" x1="145.08" y1="384.181" x2="188.788" y2="336.973" gradientUnits="userSpaceOnUse">
<stop stop-color="#54B948"/>
<stop offset="0.3764" stop-color="#00A651"/>
<stop offset="1" stop-color="#005826"/>
</linearGradient>
<linearGradient id="paint4_linear" x1="127.491" y1="359.265" x2="169.161" y2="314.259" gradientUnits="userSpaceOnUse">
<stop stop-color="#54B948"/>
<stop offset="0.3764" stop-color="#00A651"/>
<stop offset="1" stop-color="#005826"/>
</linearGradient>
<linearGradient id="paint5_linear" x1="118.434" y1="339.976" x2="156.48" y2="298.884" gradientUnits="userSpaceOnUse">
<stop stop-color="#54B948"/>
<stop offset="0.3764" stop-color="#00A651"/>
<stop offset="1" stop-color="#005826"/>
</linearGradient>
<linearGradient id="paint6_linear" x1="109.843" y1="317.485" x2="143.134" y2="281.529" gradientUnits="userSpaceOnUse">
<stop stop-color="#54B948"/>
<stop offset="0.3764" stop-color="#00A651"/>
<stop offset="1" stop-color="#005826"/>
</linearGradient>
<linearGradient id="paint7_linear" x1="99.4244" y1="298.073" x2="130.337" y2="264.685" gradientUnits="userSpaceOnUse">
<stop stop-color="#54B948"/>
<stop offset="0.3764" stop-color="#00A651"/>
<stop offset="1" stop-color="#005826"/>
</linearGradient>
<linearGradient id="paint8_linear" x1="80.249" y1="268.737" x2="109.465" y2="237.182" gradientUnits="userSpaceOnUse">
<stop stop-color="#54B948"/>
<stop offset="0.3764" stop-color="#00A651"/>
<stop offset="1" stop-color="#005826"/>
</linearGradient>
<linearGradient id="paint9_linear" x1="64.6924" y1="242.362" x2="92.2426" y2="212.606" gradientUnits="userSpaceOnUse">
<stop stop-color="#54B948"/>
<stop offset="0.3764" stop-color="#00A651"/>
<stop offset="1" stop-color="#005826"/>
</linearGradient>
<linearGradient id="paint10_linear" x1="64.2748" y1="216.072" x2="82.3711" y2="196.527" gradientUnits="userSpaceOnUse">
<stop stop-color="#54B948"/>
<stop offset="0.3764" stop-color="#00A651"/>
<stop offset="1" stop-color="#005826"/>
</linearGradient>
<linearGradient id="paint11_linear" x1="71.7586" y1="202.592" x2="83.6244" y2="189.776" gradientUnits="userSpaceOnUse">
<stop stop-color="#54B948"/>
<stop offset="0.3764" stop-color="#00A651"/>
<stop offset="1" stop-color="#005826"/>
</linearGradient>
<linearGradient id="paint12_linear" x1="56.2597" y1="171.061" x2="62.7543" y2="164.047" gradientUnits="userSpaceOnUse">
<stop stop-color="#54B948"/>
<stop offset="0.3764" stop-color="#00A651"/>
<stop offset="1" stop-color="#005826"/>
</linearGradient>
<linearGradient id="paint13_linear" x1="55.6146" y1="156.516" x2="61.0874" y2="150.605" gradientUnits="userSpaceOnUse">
<stop stop-color="#54B948"/>
<stop offset="0.3764" stop-color="#00A651"/>
<stop offset="1" stop-color="#005826"/>
</linearGradient>
<linearGradient id="paint14_linear" x1="53.4558" y1="135.885" x2="63.9112" y2="124.593" gradientUnits="userSpaceOnUse">
<stop stop-color="#54B948"/>
<stop offset="0.3764" stop-color="#00A651"/>
<stop offset="1" stop-color="#005826"/>
</linearGradient>
<linearGradient id="paint15_linear" x1="47.7228" y1="107.326" x2="60.4014" y2="93.6327" gradientUnits="userSpaceOnUse">
<stop stop-color="#54B948"/>
<stop offset="0.3764" stop-color="#00A651"/>
<stop offset="1" stop-color="#005826"/>
</linearGradient>
<linearGradient id="paint16_linear" x1="46.2156" y1="88.6405" x2="67.7126" y2="65.4223" gradientUnits="userSpaceOnUse">
<stop stop-color="#54B948"/>
<stop offset="0.3764" stop-color="#00A651"/>
<stop offset="1" stop-color="#005826"/>
</linearGradient>
<linearGradient id="paint17_linear" x1="98.09" y1="84.3747" x2="79.4752" y2="83.0506" gradientUnits="userSpaceOnUse">
<stop stop-color="#54B948"/>
<stop offset="0.3764" stop-color="#00A651"/>
<stop offset="1" stop-color="#005826"/>
</linearGradient>
<linearGradient id="paint18_linear" x1="94.127" y1="61.4253" x2="56.803" y2="53.6673" gradientUnits="userSpaceOnUse">
<stop stop-color="#54B948"/>
<stop offset="0.3764" stop-color="#00A651"/>
<stop offset="1" stop-color="#005826"/>
</linearGradient>
<linearGradient id="paint19_linear" x1="45.5594" y1="79.8908" x2="82.6298" y2="39.8521" gradientUnits="userSpaceOnUse">
<stop stop-color="#54B948"/>
<stop offset="0.3764" stop-color="#00A651"/>
<stop offset="1" stop-color="#005826"/>
</linearGradient>
<linearGradient id="paint20_linear" x1="307.879" y1="354.988" x2="255.113" y2="392.781" gradientUnits="userSpaceOnUse">
<stop stop-color="#54B948"/>
<stop offset="0.3764" stop-color="#00A651"/>
<stop offset="1" stop-color="#005826"/>
</linearGradient>
<linearGradient id="paint21_linear" x1="301.556" y1="310.82" x2="231.096" y2="361.286" gradientUnits="userSpaceOnUse">
<stop stop-color="#54B948"/>
<stop offset="0.3764" stop-color="#00A651"/>
<stop offset="1" stop-color="#005826"/>
</linearGradient>
<linearGradient id="paint22_linear" x1="280.159" y1="300.166" x2="218.686" y2="335.019" gradientUnits="userSpaceOnUse">
<stop stop-color="#54B948"/>
<stop offset="0.3764" stop-color="#00A651"/>
<stop offset="1" stop-color="#005826"/>
</linearGradient>
<linearGradient id="paint23_linear" x1="264.321" y1="295.404" x2="206.736" y2="324.096" gradientUnits="userSpaceOnUse">
<stop stop-color="#54B948"/>
<stop offset="0.3764" stop-color="#00A651"/>
<stop offset="1" stop-color="#005826"/>
</linearGradient>
<linearGradient id="paint24_linear" x1="242.129" y1="268.61" x2="188.156" y2="297.744" gradientUnits="userSpaceOnUse">
<stop stop-color="#54B948"/>
<stop offset="0.3764" stop-color="#00A651"/>
<stop offset="1" stop-color="#005826"/>
</linearGradient>
<linearGradient id="paint25_linear" x1="224.846" y1="257.953" x2="175.404" y2="284.245" gradientUnits="userSpaceOnUse">
<stop stop-color="#54B948"/>
<stop offset="0.3764" stop-color="#00A651"/>
<stop offset="1" stop-color="#005826"/>
</linearGradient>
<linearGradient id="paint26_linear" x1="208.263" y1="243.76" x2="163.81" y2="264.374" gradientUnits="userSpaceOnUse">
<stop stop-color="#54B948"/>
<stop offset="0.3764" stop-color="#00A651"/>
<stop offset="1" stop-color="#005826"/>
</linearGradient>
<linearGradient id="paint27_linear" x1="197.52" y1="229.486" x2="154.395" y2="243.991" gradientUnits="userSpaceOnUse">
<stop stop-color="#54B948"/>
<stop offset="0.3764" stop-color="#00A651"/>
<stop offset="1" stop-color="#005826"/>
</linearGradient>
<linearGradient id="paint28_linear" x1="185.186" y1="206.159" x2="143.5" y2="216.707" gradientUnits="userSpaceOnUse">
<stop stop-color="#54B948"/>
<stop offset="0.3764" stop-color="#00A651"/>
<stop offset="1" stop-color="#005826"/>
</linearGradient>
<linearGradient id="paint29_linear" x1="171.482" y1="182.085" x2="132.018" y2="191.42" gradientUnits="userSpaceOnUse">
<stop stop-color="#54B948"/>
<stop offset="0.3764" stop-color="#00A651"/>
<stop offset="1" stop-color="#005826"/>
</linearGradient>
<linearGradient id="paint30_linear" x1="152.049" y1="167.208" x2="125.765" y2="171.515" gradientUnits="userSpaceOnUse">
<stop stop-color="#54B948"/>
<stop offset="0.3764" stop-color="#00A651"/>
<stop offset="1" stop-color="#005826"/>
</linearGradient>
<linearGradient id="paint31_linear" x1="138.094" y1="162.312" x2="120.806" y2="164.781" gradientUnits="userSpaceOnUse">
<stop stop-color="#54B948"/>
<stop offset="0.3764" stop-color="#00A651"/>
<stop offset="1" stop-color="#005826"/>
</linearGradient>
<linearGradient id="paint32_linear" x1="123.308" y1="137.875" x2="113.808" y2="138.939" gradientUnits="userSpaceOnUse">
<stop stop-color="#54B948"/>
<stop offset="0.3764" stop-color="#00A651"/>
<stop offset="1" stop-color="#005826"/>
</linearGradient>
<linearGradient id="paint33_linear" x1="105.102" y1="100.752" x2="97.0759" y2="101.432" gradientUnits="userSpaceOnUse">
<stop stop-color="#54B948"/>
<stop offset="0.3764" stop-color="#00A651"/>
<stop offset="1" stop-color="#005826"/>
</linearGradient>
<linearGradient id="paint34_linear" x1="109.703" y1="117.648" x2="114.565" y2="185.749" gradientUnits="userSpaceOnUse">
<stop stop-color="#54B948"/>
<stop offset="0.3764" stop-color="#00A651"/>
<stop offset="1" stop-color="#005826"/>
</linearGradient>
<linearGradient id="paint35_linear" x1="154.779" y1="243.36" x2="357.357" y2="444.714" gradientUnits="userSpaceOnUse">
<stop stop-color="#54B948"/>
<stop offset="0.3764" stop-color="#00A651"/>
<stop offset="1" stop-color="#005826"/>
</linearGradient>
</defs>
</svg>
