<svg width="348" height="734" viewBox="0 0 348 734" fill="none" xmlns="http://www.w3.org/2000/svg">
<g opacity="0.8">
<path d="M380.561 677.495C380.561 677.495 330.669 684.996 258.495 647.667C258.495 647.667 302.313 659.247 327.276 661.718C356.796 664.751 377.862 675.748 380.561 677.495Z" fill="url(#paint0_linear)"/>
<path d="M367.731 655.505C367.731 655.505 263.534 650.899 189.371 588.667C189.371 588.667 230.792 620.794 282.368 628.925C333.986 636.92 359.248 648.217 367.731 655.505Z" fill="url(#paint1_linear)"/>
<path d="M356.17 635.102C356.17 635.102 227.806 607.857 178.909 524.366C178.909 524.366 210.018 568.897 277.742 593.711C345.288 618.615 356.17 635.102 356.17 635.102Z" fill="url(#paint2_linear)"/>
<path d="M341.161 603.687C341.161 603.687 237.498 576.017 181.288 505.737C181.288 505.737 235.914 547.987 285.93 569.384C317.868 582.954 341.161 603.687 341.161 603.687Z" fill="url(#paint3_linear)"/>
<path d="M159.562 449.393C159.562 449.393 218.012 540.068 333.126 580.115C333.126 580.115 301.105 547.28 250.363 521.657C199.577 496.167 159.562 449.393 159.562 449.393Z" fill="url(#paint4_linear)"/>
<path d="M158.099 423.769C158.099 423.769 203.686 503.247 320.271 549.829C320.271 549.829 291.567 518.198 258.249 501.525C224.975 484.717 192.482 466.383 158.099 423.769Z" fill="url(#paint5_linear)"/>
<path d="M158.451 393.839C158.451 393.839 223.129 496.561 307.559 516.777C307.559 516.777 283.301 490.704 238.623 465.088C193.946 439.471 158.451 393.839 158.451 393.839Z" fill="url(#paint6_linear)"/>
<path d="M153.965 365.626C153.965 365.626 216.44 450.627 296.177 486.516C296.177 486.516 278.436 460.89 235.554 432.886C192.673 404.881 165.697 378.979 153.965 365.626Z" fill="url(#paint7_linear)"/>
<path d="M136.856 311.048C136.856 311.048 191.725 410.647 284.008 447.569C284.008 447.569 269.864 427.38 240.309 408.649C210.663 389.741 168.961 353.381 136.856 311.048Z" fill="url(#paint8_linear)"/>
<path d="M119.828 255.756C119.828 255.756 184.333 378.548 278.643 420.26C278.643 420.26 256.034 390.865 233.668 376.05C211.302 361.235 160.824 318.973 119.828 255.756Z" fill="url(#paint9_linear)"/>
<path d="M136.673 215.389C136.673 215.389 164.127 325.796 272.421 395.637C272.421 395.637 273.204 387.599 231.002 347.232C188.8 306.864 165.507 279.619 136.673 215.389Z" fill="url(#paint10_linear)"/>
<path d="M155.063 219.911C155.063 219.911 218.505 343.254 267.989 371.436C267.989 371.436 258.281 346.148 225.43 311.272C192.536 276.532 184.01 266.123 155.063 219.911Z" fill="url(#paint11_linear)"/>
<path d="M144.586 151.018C144.586 151.018 208.488 304.992 260.842 344.151C260.842 344.151 234.363 295.766 207.455 261.747C180.37 227.819 144.586 151.018 144.586 151.018Z" fill="url(#paint12_linear)"/>
<path d="M154.379 133.268C154.379 133.268 206.116 271.531 261.082 322.473C261.082 322.473 251.911 300.611 227.666 262.408C203.422 224.205 176.429 180.688 154.379 133.268Z" fill="url(#paint13_linear)"/>
<path d="M173.666 105.223C173.666 105.223 189.713 196.608 257.22 290.906C257.22 290.906 245.784 259.888 229.577 225.724C213.37 191.559 188.202 164.161 173.666 105.223Z" fill="url(#paint14_linear)"/>
<path d="M380.561 677.495C380.561 677.495 334.297 686.151 258.855 647.929C258.855 647.929 303.992 664.665 333.432 668.413C352.465 670.92 372.828 676.218 380.561 677.495Z" fill="#39B54A"/>
<path d="M368.09 655.767C368.09 655.767 263.893 651.161 189.73 588.929C189.73 588.929 218.454 615.386 288.291 634.953C328.493 646.27 346.792 650.615 368.09 655.767Z" fill="#39B54A"/>
<path d="M356.665 635.408C356.665 635.408 227.941 607.9 178.909 524.366C178.909 524.366 209.988 569.923 275.939 598.908C328.16 621.747 356.665 635.408 356.665 635.408Z" fill="#39B54A"/>
<path d="M341.522 603.95C341.522 603.95 237.364 575.974 181.288 505.737C181.288 505.737 218.726 543.404 283.73 574.899C308.467 586.917 341.522 603.95 341.522 603.95Z" fill="#39B54A"/>
<path d="M159.562 449.393C159.562 449.393 218.372 540.331 333.486 580.378C333.486 580.378 291.221 555.085 250.966 529.988C202.795 500.004 159.562 449.393 159.562 449.393Z" fill="#39B54A"/>
<path d="M158.099 423.769C158.099 423.769 203.686 503.247 320.271 549.829C320.271 549.829 288.494 525.063 255.176 508.39C221.859 491.717 192.482 466.383 158.099 423.769Z" fill="#39B54A"/>
<path d="M158.812 394.102C158.812 394.102 223.49 496.823 307.919 517.039C307.919 517.039 288.094 505.401 246.715 479.65C191.392 445.17 158.812 394.102 158.812 394.102Z" fill="#39B54A"/>
<path d="M154.459 365.931C154.459 365.931 216.934 450.932 296.671 486.821C296.671 486.821 269.718 465.959 232.603 438.901C191.206 408.557 166.057 379.242 154.459 365.931Z" fill="#39B54A"/>
<path d="M137.218 311.311C137.218 311.311 192.087 410.91 284.369 447.832C284.369 447.832 265.919 432.34 236.187 413.701C194.899 388.127 169.323 353.644 137.218 311.311Z" fill="#39B54A"/>
<path d="M120.322 256.06C120.322 256.06 184.827 378.853 279.137 420.564C279.137 420.564 251.299 396.905 228.933 382.09C206.433 367.232 161.318 319.278 120.322 256.06Z" fill="#39B54A"/>
<path d="M136.673 215.389C136.673 215.389 164.488 326.059 272.782 395.9C272.782 395.9 268.757 391.807 226.421 351.397C184.084 310.987 157.69 272.099 136.673 215.389Z" fill="#39B54A"/>
<path d="M155.063 219.911C155.063 219.911 218.505 343.254 267.989 371.436C267.989 371.436 258.127 357.79 228.201 324.882C194.88 288.229 184.01 266.123 155.063 219.911Z" fill="#39B54A"/>
<path d="M143.846 149.154C143.846 149.154 207.748 303.128 260.102 342.287C260.102 342.287 238.403 314.218 209.688 271.928C185.254 236.181 143.846 149.154 143.846 149.154Z" fill="#39B54A"/>
<path d="M154.379 133.268C154.379 133.268 206.116 271.531 261.082 322.473C261.082 322.473 247.983 303.653 223.696 265.584C199.408 227.515 176.429 180.688 154.379 133.268Z" fill="#39B54A"/>
<path d="M173.666 105.223C173.666 105.223 189.573 196.119 257.08 290.418C257.08 290.418 239.113 261.317 223.041 227.195C206.969 193.073 188.202 164.161 173.666 105.223Z" fill="#39B54A"/>
<path d="M188.438 73.2236C188.438 73.2236 214.739 184.003 253.811 240.245C253.811 240.245 242.711 201.195 230.798 174.464C218.884 147.734 198.757 110.545 188.438 73.2236Z" fill="url(#paint15_linear)"/>
<path d="M188.438 73.2236C188.438 73.2236 214.739 184.003 253.811 240.245C253.811 240.245 236.468 207.791 225.312 177.75C215.219 150.415 198.757 110.545 188.438 73.2236Z" fill="#39B54A"/>
<path d="M216.521 49.1615C216.521 49.1615 217.456 141.064 253.052 204.043C253.052 204.043 251.563 192.913 243.95 164.296C236.337 135.679 219.196 101.661 216.521 49.1615Z" fill="url(#paint16_linear)"/>
<path d="M216.521 49.1615C216.521 49.1615 217.456 141.064 253.052 204.043C253.052 204.043 245.492 189.205 237.879 160.588C230.266 131.97 219.196 101.661 216.521 49.1615Z" fill="#39B54A"/>
<path d="M295.361 61.8265C295.361 61.8265 284.28 175.209 253.31 236.238C253.31 236.238 259.008 196.023 267.19 167.994C275.372 139.965 290.085 100.252 295.361 61.8265Z" fill="url(#paint17_linear)"/>
<path d="M295.361 61.8265C295.361 61.8265 284.28 175.209 253.31 236.238C253.31 236.238 266.086 201.68 273.066 170.456C279.324 141.963 290.085 100.252 295.361 61.8265Z" fill="#39B54A"/>
<path d="M281.891 28.8291C281.891 28.8291 289.306 125.014 254.079 187.795C254.079 187.795 254.771 176.324 260.84 147.03C266.909 117.737 283.57 83.5272 281.891 28.8291Z" fill="url(#paint18_linear)"/>
<path d="M281.891 28.8291C281.891 28.8291 289.306 125.014 254.079 187.795C254.079 187.795 261.46 172.977 267.571 143.549C273.683 114.121 283.57 83.5272 281.891 28.8291Z" fill="#39B54A"/>
<path d="M253.548 188.069C253.548 188.069 235.942 109.951 249.732 25.252C249.732 25.252 263.169 134.6 253.548 188.069Z" fill="url(#paint19_linear)"/>
<path d="M253.548 188.069C253.548 188.069 235.942 109.951 249.732 25.252C249.732 25.252 247.827 124.685 253.548 188.069Z" fill="#39B54A"/>
<path d="M342.768 603.754C342.768 603.754 406.889 517.614 407.23 427.746C407.23 427.746 390.657 494.688 364.594 542.627C348.104 573.044 342.768 603.754 342.768 603.754Z" fill="url(#paint20_linear)"/>
<path d="M342.773 604.2C342.773 604.2 407.023 517.657 407.406 427.654C407.406 427.654 401.389 480.494 370.071 545.407C358.011 570.278 342.773 604.2 342.773 604.2Z" fill="#39B54A"/>
<path d="M383.146 365.324C383.146 365.324 397.084 472.168 335.227 577.232C335.227 577.232 338.397 531.477 360.698 479.084C382.821 426.783 383.146 365.324 383.146 365.324Z" fill="url(#paint21_linear)"/>
<path d="M383.146 365.324C383.146 365.324 397.048 472.748 335.056 577.769C335.056 577.769 351.059 531.216 365.608 485.975C382.845 431.823 383.146 365.324 383.146 365.324Z" fill="#39B54A"/>
<path d="M365.924 348.298C365.924 348.298 381.91 438.48 322.312 548.998C322.312 548.998 324.052 506.34 338.929 472.155C353.672 437.927 366.846 403.051 365.924 348.298Z" fill="url(#paint22_linear)"/>
<path d="M365.924 348.298C365.924 348.298 381.91 438.48 322.312 548.998C322.312 548.998 330.831 509.682 345.617 475.32C360.452 441.269 366.846 403.051 365.924 348.298Z" fill="#39B54A"/>
<path d="M355.452 325.875C355.452 325.875 365.033 446.871 309.612 513.583C309.612 513.583 313.459 478.254 334 430.925C354.541 383.596 355.452 325.875 355.452 325.875Z" fill="url(#paint23_linear)"/>
<path d="M355.28 326.412C355.28 326.412 364.861 447.408 309.441 514.12C309.441 514.12 318.385 492.993 335.964 447.533C359.622 386.693 355.28 326.412 355.28 326.412Z" fill="#39B54A"/>
<path d="M356.937 304.002C356.937 304.002 346.144 409.041 295.603 480.414C295.603 480.414 297.946 449.342 320.692 403.455C343.524 357.299 353.741 321.482 356.937 304.002Z" fill="url(#paint24_linear)"/>
<path d="M356.809 304.405C356.809 304.405 346.015 409.444 295.474 480.817C295.474 480.817 308.244 449.069 326.359 407.035C346.681 359.932 353.612 321.886 356.809 304.405Z" fill="#39B54A"/>
<path d="M357.628 259.529C357.628 259.529 352.215 373.237 285.56 446.88C285.56 446.88 289.424 422.655 307.703 392.661C325.982 362.666 347.409 311.624 357.628 259.529Z" fill="url(#paint25_linear)"/>
<path d="M357.322 260.024C357.322 260.024 351.909 373.731 285.255 447.374C285.255 447.374 294.945 425.301 313.584 395.569C339.469 354.233 347.238 312.161 357.322 260.024Z" fill="#39B54A"/>
<path d="M351.912 206.358C351.912 206.358 345.811 345.004 278.142 422.764C278.142 422.764 286.081 386.666 300.084 363.598C314.178 340.706 341.732 281.107 351.912 206.358Z" fill="url(#paint26_linear)"/>
<path d="M351.74 206.895C351.74 206.895 345.639 345.541 277.971 423.301C277.971 423.301 292.994 390.051 306.997 366.982C321.091 344.091 341.604 281.51 351.74 206.895Z" fill="#39B54A"/>
<path d="M332.466 176.785C332.466 176.785 346.751 289.512 271.193 393.914C271.193 393.914 267.572 386.694 292.408 333.776C317.244 280.859 328.78 246.942 332.466 176.785Z" fill="url(#paint27_linear)"/>
<path d="M332.466 176.785C332.466 176.785 346.446 290.006 270.888 394.409C270.888 394.409 273.179 389.07 298.015 336.153C322.851 283.236 333.417 237.023 332.466 176.785Z" fill="#39B54A"/>
<path d="M322.521 183.387C322.521 183.387 305.169 321.116 268.295 364.43C268.295 364.43 268.775 337.353 287.667 293.346C306.558 249.34 311.159 236.746 322.521 183.387Z" fill="url(#paint28_linear)"/>
<path d="M322.521 183.387C322.521 183.387 305.17 321.116 268.296 364.43C268.296 364.43 272.891 348.134 289.681 307.011C308.372 261.312 311.16 236.746 322.521 183.387Z" fill="#39B54A"/>
<path d="M312.493 124.7C312.493 124.7 300.257 290.991 262.765 344.615C262.765 344.615 272.776 290.383 287.655 249.686C302.533 208.99 312.493 124.7 312.493 124.7Z" fill="url(#paint29_linear)"/>
<path d="M312.493 124.7C312.493 124.7 300.257 290.991 262.765 344.615C262.765 344.615 274.484 311.053 288.624 261.982C300.546 220.345 312.493 124.7 312.493 124.7Z" fill="#39B54A"/>
<path d="M303.289 70.8619C303.289 70.8619 293.516 218.255 255.638 282.855C255.638 282.855 258.127 259.23 270.337 215.76C282.546 172.29 295.788 122.786 303.289 70.8619Z" fill="url(#paint30_linear)"/>
<path d="M303.289 70.8619C303.289 70.8619 293.516 218.255 255.638 282.855C255.638 282.855 262.702 261.13 275.088 217.568C287.475 174.007 295.788 122.786 303.289 70.8619Z" fill="#39B54A"/>
<path d="M302.733 118.633C302.733 118.633 304.902 212.704 258.089 318.857C258.089 318.857 263.603 284.799 272.428 248.243C281.16 211.51 300.478 179.182 302.733 118.633Z" fill="url(#paint31_linear)"/>
<path d="M302.733 118.633C302.733 118.633 304.902 212.704 258.089 318.857C258.089 318.857 270.383 284.885 279.25 248.195C287.983 211.462 300.478 179.182 302.733 118.633Z" fill="#39B54A"/>
<path d="M401.774 728.94C401.774 728.94 226.226 442.199 252.974 188.479C253.286 185.175 254.966 184.081 255.412 180.82C255.412 180.82 225.477 426.422 417.472 728.906L401.774 728.94Z" fill="url(#paint32_linear)"/>
</g>
<defs>
<linearGradient id="paint0_linear" x1="279.706" y1="685.184" x2="359.33" y2="640.049" gradientUnits="userSpaceOnUse">
<stop stop-color="#54B948"/>
<stop offset="0.3764" stop-color="#00A651"/>
<stop offset="1" stop-color="#005826"/>
</linearGradient>
<linearGradient id="paint1_linear" x1="225.466" y1="652.172" x2="331.788" y2="591.902" gradientUnits="userSpaceOnUse">
<stop stop-color="#54B948"/>
<stop offset="0.3764" stop-color="#00A651"/>
<stop offset="1" stop-color="#005826"/>
</linearGradient>
<linearGradient id="paint2_linear" x1="224.26" y1="604.292" x2="310.954" y2="555.149" gradientUnits="userSpaceOnUse">
<stop stop-color="#54B948"/>
<stop offset="0.3764" stop-color="#00A651"/>
<stop offset="1" stop-color="#005826"/>
</linearGradient>
<linearGradient id="paint3_linear" x1="221.789" y1="577.056" x2="300.713" y2="532.317" gradientUnits="userSpaceOnUse">
<stop stop-color="#54B948"/>
<stop offset="0.3764" stop-color="#00A651"/>
<stop offset="1" stop-color="#005826"/>
</linearGradient>
<linearGradient id="paint4_linear" x1="208.812" y1="536.052" x2="284.056" y2="493.399" gradientUnits="userSpaceOnUse">
<stop stop-color="#54B948"/>
<stop offset="0.3764" stop-color="#00A651"/>
<stop offset="1" stop-color="#005826"/>
</linearGradient>
<linearGradient id="paint5_linear" x1="204.891" y1="506.259" x2="273.591" y2="467.315" gradientUnits="userSpaceOnUse">
<stop stop-color="#54B948"/>
<stop offset="0.3764" stop-color="#00A651"/>
<stop offset="1" stop-color="#005826"/>
</linearGradient>
<linearGradient id="paint6_linear" x1="202.968" y1="472.363" x2="263.081" y2="438.287" gradientUnits="userSpaceOnUse">
<stop stop-color="#54B948"/>
<stop offset="0.3764" stop-color="#00A651"/>
<stop offset="1" stop-color="#005826"/>
</linearGradient>
<linearGradient id="paint7_linear" x1="197.271" y1="441.821" x2="253.091" y2="410.179" gradientUnits="userSpaceOnUse">
<stop stop-color="#54B948"/>
<stop offset="0.3764" stop-color="#00A651"/>
<stop offset="1" stop-color="#005826"/>
</linearGradient>
<linearGradient id="paint8_linear" x1="184.052" y1="394.2" x2="236.807" y2="364.295" gradientUnits="userSpaceOnUse">
<stop stop-color="#54B948"/>
<stop offset="0.3764" stop-color="#00A651"/>
<stop offset="1" stop-color="#005826"/>
</linearGradient>
<linearGradient id="paint9_linear" x1="174.43" y1="352.105" x2="224.178" y2="323.905" gradientUnits="userSpaceOnUse">
<stop stop-color="#54B948"/>
<stop offset="0.3764" stop-color="#00A651"/>
<stop offset="1" stop-color="#005826"/>
</linearGradient>
<linearGradient id="paint10_linear" x1="185.114" y1="316.601" x2="217.79" y2="298.077" gradientUnits="userSpaceOnUse">
<stop stop-color="#54B948"/>
<stop offset="0.3764" stop-color="#00A651"/>
<stop offset="1" stop-color="#005826"/>
</linearGradient>
<linearGradient id="paint11_linear" x1="200.936" y1="301.688" x2="222.362" y2="289.542" gradientUnits="userSpaceOnUse">
<stop stop-color="#54B948"/>
<stop offset="0.3764" stop-color="#00A651"/>
<stop offset="1" stop-color="#005826"/>
</linearGradient>
<linearGradient id="paint12_linear" x1="193.598" y1="252.69" x2="205.325" y2="246.043" gradientUnits="userSpaceOnUse">
<stop stop-color="#54B948"/>
<stop offset="0.3764" stop-color="#00A651"/>
<stop offset="1" stop-color="#005826"/>
</linearGradient>
<linearGradient id="paint13_linear" x1="198.952" y1="232.869" x2="208.834" y2="227.267" gradientUnits="userSpaceOnUse">
<stop stop-color="#54B948"/>
<stop offset="0.3764" stop-color="#00A651"/>
<stop offset="1" stop-color="#005826"/>
</linearGradient>
<linearGradient id="paint14_linear" x1="204.875" y1="204.224" x2="223.755" y2="193.522" gradientUnits="userSpaceOnUse">
<stop stop-color="#54B948"/>
<stop offset="0.3764" stop-color="#00A651"/>
<stop offset="1" stop-color="#005826"/>
</linearGradient>
<linearGradient id="paint15_linear" x1="209.387" y1="163.396" x2="232.281" y2="150.418" gradientUnits="userSpaceOnUse">
<stop stop-color="#54B948"/>
<stop offset="0.3764" stop-color="#00A651"/>
<stop offset="1" stop-color="#005826"/>
</linearGradient>
<linearGradient id="paint16_linear" x1="215.354" y1="137.643" x2="254.171" y2="115.639" gradientUnits="userSpaceOnUse">
<stop stop-color="#54B948"/>
<stop offset="0.3764" stop-color="#00A651"/>
<stop offset="1" stop-color="#005826"/>
</linearGradient>
<linearGradient id="paint17_linear" x1="286.883" y1="154.098" x2="262.436" y2="144.357" gradientUnits="userSpaceOnUse">
<stop stop-color="#54B948"/>
<stop offset="0.3764" stop-color="#00A651"/>
<stop offset="1" stop-color="#005826"/>
</linearGradient>
<linearGradient id="paint18_linear" x1="291.374" y1="121.566" x2="244.539" y2="95.1766" gradientUnits="userSpaceOnUse">
<stop stop-color="#54B948"/>
<stop offset="0.3764" stop-color="#00A651"/>
<stop offset="1" stop-color="#005826"/>
</linearGradient>
<linearGradient id="paint19_linear" x1="218.215" y1="125.605" x2="285.153" y2="87.6597" gradientUnits="userSpaceOnUse">
<stop stop-color="#54B948"/>
<stop offset="0.3764" stop-color="#00A651"/>
<stop offset="1" stop-color="#005826"/>
</linearGradient>
<linearGradient id="paint20_linear" x1="419.99" y1="508.766" x2="330.339" y2="522.691" gradientUnits="userSpaceOnUse">
<stop stop-color="#54B948"/>
<stop offset="0.3764" stop-color="#00A651"/>
<stop offset="1" stop-color="#005826"/>
</linearGradient>
<linearGradient id="paint21_linear" x1="401.63" y1="463.271" x2="316.643" y2="479.332" gradientUnits="userSpaceOnUse">
<stop stop-color="#54B948"/>
<stop offset="0.3764" stop-color="#00A651"/>
<stop offset="1" stop-color="#005826"/>
</linearGradient>
<linearGradient id="paint22_linear" x1="382.965" y1="441.558" x2="305.282" y2="455.739" gradientUnits="userSpaceOnUse">
<stop stop-color="#54B948"/>
<stop offset="0.3764" stop-color="#00A651"/>
<stop offset="1" stop-color="#005826"/>
</linearGradient>
<linearGradient id="paint23_linear" x1="366.753" y1="415.394" x2="298.203" y2="424.08" gradientUnits="userSpaceOnUse">
<stop stop-color="#54B948"/>
<stop offset="0.3764" stop-color="#00A651"/>
<stop offset="1" stop-color="#005826"/>
</linearGradient>
<linearGradient id="paint24_linear" x1="358.42" y1="391.617" x2="294.268" y2="392.663" gradientUnits="userSpaceOnUse">
<stop stop-color="#54B948"/>
<stop offset="0.3764" stop-color="#00A651"/>
<stop offset="1" stop-color="#005826"/>
</linearGradient>
<linearGradient id="paint25_linear" x1="351.826" y1="354.997" x2="291.299" y2="351.341" gradientUnits="userSpaceOnUse">
<stop stop-color="#54B948"/>
<stop offset="0.3764" stop-color="#00A651"/>
<stop offset="1" stop-color="#005826"/>
</linearGradient>
<linearGradient id="paint26_linear" x1="343.71" y1="316.787" x2="286.688" y2="312.451" gradientUnits="userSpaceOnUse">
<stop stop-color="#54B948"/>
<stop offset="0.3764" stop-color="#00A651"/>
<stop offset="1" stop-color="#005826"/>
</linearGradient>
<linearGradient id="paint27_linear" x1="323.959" y1="288.484" x2="286.798" y2="283.029" gradientUnits="userSpaceOnUse">
<stop stop-color="#54B948"/>
<stop offset="0.3764" stop-color="#00A651"/>
<stop offset="1" stop-color="#005826"/>
</linearGradient>
<linearGradient id="paint28_linear" x1="307.302" y1="275.936" x2="283.014" y2="271.859" gradientUnits="userSpaceOnUse">
<stop stop-color="#54B948"/>
<stop offset="0.3764" stop-color="#00A651"/>
<stop offset="1" stop-color="#005826"/>
</linearGradient>
<linearGradient id="paint29_linear" x1="297.886" y1="236.775" x2="284.665" y2="234.142" gradientUnits="userSpaceOnUse">
<stop stop-color="#54B948"/>
<stop offset="0.3764" stop-color="#00A651"/>
<stop offset="1" stop-color="#005826"/>
</linearGradient>
<linearGradient id="paint30_linear" x1="289.301" y1="179.105" x2="278.225" y2="176.585" gradientUnits="userSpaceOnUse">
<stop stop-color="#54B948"/>
<stop offset="0.3764" stop-color="#00A651"/>
<stop offset="1" stop-color="#005826"/>
</linearGradient>
<linearGradient id="paint31_linear" x1="288.256" y1="203.777" x2="265.661" y2="297.366" gradientUnits="userSpaceOnUse">
<stop stop-color="#54B948"/>
<stop offset="0.3764" stop-color="#00A651"/>
<stop offset="1" stop-color="#005826"/>
</linearGradient>
<linearGradient id="paint32_linear" x1="295.055" y1="391.979" x2="481.139" y2="749.193" gradientUnits="userSpaceOnUse">
<stop stop-color="#54B948"/>
<stop offset="0.3764" stop-color="#00A651"/>
<stop offset="1" stop-color="#005826"/>
</linearGradient>
</defs>
</svg>
