<svg width="523" height="733" viewBox="0 0 523 733" fill="none" xmlns="http://www.w3.org/2000/svg">
<path d="M-20.8467 576.575C-20.8467 576.575 15.7209 611.335 96.2543 622.152C96.2543 622.152 53.7182 606.506 31.8519 594.212C5.93035 579.765 -17.6332 576.692 -20.8467 576.575Z" fill="url(#paint0_linear)"/>
<path d="M2.27476 565.919C2.27476 565.919 90.2715 621.909 186.717 613.467C186.717 613.467 134.359 616.027 87.447 593.106C40.5769 570.05 13.404 564.815 2.27476 565.919Z" fill="url(#paint1_linear)"/>
<path d="M23.4477 555.837C23.4477 555.837 144.226 607.142 232.168 566.794C232.168 566.794 181.143 585.43 111.435 566.913C41.8186 548.573 23.4477 555.837 23.4477 555.837Z" fill="url(#paint2_linear)"/>
<path d="M53.7605 538.711C53.7605 538.711 154.548 575.501 240.903 550.169C240.903 550.169 171.923 553.448 118.679 542.289C84.7338 535.087 53.7605 538.711 53.7605 538.711Z" fill="url(#paint3_linear)"/>
<path d="M291.017 516.475C291.017 516.475 191.129 557.23 73.8629 524.01C73.8629 524.01 118.926 515.479 175.189 523.592C231.41 531.841 291.017 516.475 291.017 516.475Z" fill="url(#paint4_linear)"/>
<path d="M306.913 496.324C306.913 496.324 223.985 535.283 101.764 506.574C101.764 506.574 143.42 497.126 180.276 502.577C217.173 507.894 254.306 511.512 306.913 496.324Z" fill="url(#paint5_linear)"/>
<path d="M323.79 471.605C323.79 471.605 211.891 518.655 131.135 486.79C131.135 486.79 165.96 479.346 217.251 483.986C268.542 488.627 323.79 471.605 323.79 471.605Z" fill="url(#paint6_linear)"/>
<path d="M343.646 451.066C343.646 451.066 243.716 484.864 157.814 468.529C157.814 468.529 187.044 457.713 238.234 459.367C289.423 461.021 326.377 455.276 343.646 451.066Z" fill="url(#paint7_linear)"/>
<path d="M388.965 416.17C388.965 416.17 286.893 466.288 190.121 443.605C190.121 443.605 213.286 435.179 248.24 436.786C283.37 438.301 338.385 432.434 388.965 416.17Z" fill="url(#paint8_linear)"/>
<path d="M434.627 380.643C434.627 380.643 311.359 444.234 210.179 424.311C210.179 424.311 245.559 413.199 272.378 413.891C299.196 414.583 364.786 408.916 434.627 380.643Z" fill="url(#paint9_linear)"/>
<path d="M443.98 337.915C443.98 337.915 358.166 412.61 229.398 407.709C229.398 407.709 233.367 400.676 291.09 391.813C348.814 382.95 383.521 373.992 443.98 337.915Z" fill="url(#paint10_linear)"/>
<path d="M426.322 331.072C426.322 331.072 303.609 395.722 246.909 390.426C246.909 390.426 269.367 375.279 316.28 365.553C363.151 355.961 376.105 352.324 426.322 331.072Z" fill="url(#paint11_linear)"/>
<path d="M474.42 280.646C474.42 280.646 333.761 370.125 268.414 372.175C268.414 372.175 317.856 347.727 359.411 335.292C401.057 323.035 474.42 280.646 474.42 280.646Z" fill="url(#paint12_linear)"/>
<path d="M476.578 260.489C476.578 260.489 354.896 344.076 280.651 354.28C280.651 354.28 300.703 341.631 342.475 324.242C384.246 306.853 431.317 286.687 476.578 260.489Z" fill="url(#paint13_linear)"/>
<path d="M476.864 226.453C476.864 226.453 411.305 292.109 301.92 330.636C301.92 330.636 329.079 311.787 361.95 293.096C394.821 274.405 431.152 266.396 476.864 226.453Z" fill="url(#paint14_linear)"/>
<path d="M-20.8471 576.574C-20.8471 576.574 12.0861 610.2 95.8081 622.16C95.8081 622.16 49.2349 609.981 22.9686 596.165C5.94008 587.303 -13.78 579.963 -20.8471 576.574Z" fill="#39B54A"/>
<path d="M1.83039 565.928C1.83039 565.928 89.8272 621.917 186.272 613.475C186.272 613.475 147.569 618.674 79.1375 594.647C39.7144 580.86 22.232 573.923 1.83039 565.928Z" fill="#39B54A"/>
<path d="M22.8672 555.803C22.8672 555.803 144.092 607.1 232.168 566.794C232.168 566.794 180.58 586.288 109.93 572.205C54.0528 560.961 22.8672 555.803 22.8672 555.803Z" fill="#39B54A"/>
<path d="M53.3147 538.719C53.3147 538.719 154.683 575.543 240.903 550.169C240.903 550.169 188.631 559.552 117.318 548.068C90.1617 543.725 53.3147 538.719 53.3147 538.719Z" fill="#39B54A"/>
<path d="M291.017 516.475C291.017 516.475 190.684 557.238 73.417 524.019C73.417 524.019 122.546 527.541 169.916 530.071C226.574 533.137 291.017 516.475 291.017 516.475Z" fill="#39B54A"/>
<path d="M306.913 496.324C306.913 496.324 223.985 535.283 101.764 506.574C101.764 506.574 142 504.512 178.856 509.964C215.711 515.415 254.306 511.512 306.913 496.324Z" fill="#39B54A"/>
<path d="M323.345 471.614C323.345 471.614 211.446 518.663 130.689 486.798C130.689 486.798 153.605 488.636 202.271 491.275C267.366 494.76 323.345 471.614 323.345 471.614Z" fill="#39B54A"/>
<path d="M343.067 451.033C343.067 451.033 243.137 484.83 157.235 468.496C157.235 468.496 191.279 466.865 237.202 465.988C288.517 464.875 325.932 455.285 343.067 451.033Z" fill="#39B54A"/>
<path d="M388.519 416.179C388.519 416.179 286.446 466.297 189.674 443.613C189.674 443.613 213.674 441.505 248.72 443.289C297.21 446.021 337.939 432.443 388.519 416.179Z" fill="#39B54A"/>
<path d="M434.048 380.61C434.048 380.61 310.78 444.2 209.6 424.277C209.6 424.277 245.974 420.862 272.793 421.555C299.746 422.289 364.207 408.882 434.048 380.61Z" fill="#39B54A"/>
<path d="M443.98 337.915C443.98 337.915 357.72 412.619 228.952 407.718C228.952 407.718 234.596 406.673 292.454 397.853C350.312 389.032 394.238 372.316 443.98 337.915Z" fill="#39B54A"/>
<path d="M426.322 331.072C426.322 331.072 303.609 395.722 246.909 390.426C246.909 390.426 262.816 384.905 306.204 375.111C354.522 364.198 376.105 352.324 426.322 331.072Z" fill="#39B54A"/>
<path d="M476.095 279.543C476.095 279.543 335.435 369.023 270.089 371.073C270.089 371.073 303.963 360.525 351.741 342.352C392.26 327.083 476.095 279.543 476.095 279.543Z" fill="#39B54A"/>
<path d="M476.578 260.489C476.578 260.489 354.896 344.076 280.651 354.28C280.651 354.28 302.176 346.376 343.906 329.121C385.636 311.867 431.317 286.687 476.578 260.489Z" fill="#39B54A"/>
<path d="M476.864 226.453C476.864 226.453 411.7 291.789 302.315 330.317C302.315 330.317 333.724 316.783 366.46 298.05C399.197 279.316 431.152 266.396 476.864 226.453Z" fill="#39B54A"/>
<path d="M483.116 191.768C483.116 191.768 398.034 267.43 333.769 291.091C333.769 291.091 365.259 265.469 390.35 250.405C415.44 235.342 453.258 216.423 483.116 191.768Z" fill="url(#paint15_linear)"/>
<path d="M483.116 191.768C483.116 191.768 398.034 267.43 333.769 291.091C333.769 291.091 366.59 274.453 392.959 256.243C416.905 239.64 453.258 216.423 483.116 191.768Z" fill="#39B54A"/>
<path d="M473.913 155.95C473.913 155.95 420.436 230.697 355.155 261.871C355.155 261.871 362.758 253.608 385.408 234.532C408.058 215.457 441.611 197.422 473.913 155.95Z" fill="url(#paint16_linear)"/>
<path d="M473.913 155.95C473.913 155.95 420.436 230.697 355.155 261.871C355.155 261.871 369.858 254.052 392.508 234.977C415.158 215.901 441.611 197.422 473.913 155.95Z" fill="#39B54A"/>
<path d="M402.065 121.106C402.065 121.106 346.112 220.341 336.478 288.096C336.478 288.096 354.876 251.885 364.25 224.232C373.623 196.579 384.348 155.608 402.065 121.106Z" fill="url(#paint17_linear)"/>
<path d="M402.065 121.106C402.065 121.106 346.112 220.341 336.478 288.096C336.478 288.096 345.833 252.459 358.024 222.879C369.24 195.949 384.348 155.608 402.065 121.106Z" fill="#39B54A"/>
<path d="M432.025 101.801C432.025 101.801 370.783 176.339 363.632 247.972C363.632 247.972 369.645 238.178 381.475 210.701C393.305 183.224 399.278 145.645 432.025 101.801Z" fill="url(#paint18_linear)"/>
<path d="M432.025 101.801C432.025 101.801 370.783 176.339 363.632 247.972C363.632 247.972 366.085 231.601 377.957 203.989C389.829 176.377 399.278 145.645 432.025 101.801Z" fill="#39B54A"/>
<path d="M363.91 248.501C363.91 248.501 423.138 194.607 460.421 117.315C460.421 117.315 386.697 199.183 363.91 248.501Z" fill="url(#paint19_linear)" class="leaf"/>
<path d="M363.91 248.501C363.91 248.501 423.138 194.607 460.421 117.315C460.421 117.315 404.952 199.861 363.91 248.501Z" fill="#39B54A" />
<path d="M-19.2405 576.633C-19.2405 576.633 -33.1905 528.106 -5.61504 451.623C-5.61504 451.623 -11.4012 496.647 -10.6553 521.699C-9.63922 551.562 -17.7774 573.84 -19.2405 576.633Z" fill="url(#paint20_linear)"/>
<path d="M-19.2405 576.632C-19.2405 576.632 -33.7869 531.907 -5.91773 452.119C-5.91773 452.119 -16.5741 499.02 -16.5423 528.724C-16.353 547.988 -18.8973 568.91 -19.2405 576.632Z" fill="#39B54A"/>
<path d="M2.34261 562.395C2.34261 562.395 -6.73206 458.513 45.3641 376.835C45.3641 376.835 18.9343 422.208 17.6083 474.239C16.3328 526.58 8.49836 553.089 2.34261 562.395Z" fill="url(#paint21_linear)"/>
<path d="M2.17428 562.933C2.17428 562.933 -6.90039 459.051 45.1958 377.373C45.1958 377.373 22.8345 409.244 12.3435 481.163C6.43874 522.309 4.47437 540.901 2.17428 562.933Z" fill="#39B54A"/>
<path d="M21.2583 551.016C21.2583 551.016 17.5952 419.869 87.3184 352.707C87.3184 352.707 51.2974 393.312 43.0777 465.054C34.8074 536.485 21.2583 551.016 21.2583 551.016Z" fill="url(#paint22_linear)"/>
<path d="M21.1332 551.421C21.1332 551.421 17.6382 419.735 87.3613 352.573C87.3613 352.573 50.3647 393.465 37.6694 464.4C27.6796 520.521 21.1332 551.421 21.1332 551.421Z" fill="#39B54A"/>
<path d="M52.4056 537.844C52.4056 537.844 49.2861 430.504 100.551 356.692C100.551 356.692 75.7323 421.034 69.5865 475.253C65.6488 509.627 52.4056 537.844 52.4056 537.844Z" fill="url(#paint23_linear)"/>
<path d="M52.1456 538.207C52.1456 538.207 49.1521 430.462 100.459 356.515C100.459 356.515 75.0813 403.251 63.5049 474.388C59.1197 501.679 52.1456 538.207 52.1456 538.207Z" fill="#39B54A"/>
<path d="M156.082 319.371C156.082 319.371 83.3836 398.9 73.7953 520.443C73.7953 520.443 97.442 481.144 109.224 425.435C121.098 369.903 156.082 319.371 156.082 319.371Z" fill="url(#paint24_linear)"/>
<path d="M156.082 319.371C156.082 319.371 83.0809 399.397 73.6272 520.982C73.6272 520.982 87.2194 473.668 101.249 428.264C118.188 374.017 156.082 319.371 156.082 319.371Z" fill="#39B54A"/>
<path d="M179.956 315.302C179.956 315.302 115.137 380.007 100.569 504.723C100.569 504.723 123.611 468.781 131.031 432.244C138.585 395.75 147.797 359.626 179.956 315.302Z" fill="url(#paint25_linear)"/>
<path d="M179.956 315.302C179.956 315.302 115.137 380.007 100.569 504.723C100.569 504.723 116.14 467.63 123.737 431.001C131.115 394.599 147.797 359.626 179.956 315.302Z" fill="#39B54A"/>
<path d="M201.396 302.94C201.396 302.94 124.149 396.561 131.285 482.996C131.285 482.996 148.397 451.849 158.716 401.298C169.036 350.746 201.396 302.94 201.396 302.94Z" fill="url(#paint26_linear)"/>
<path d="M201.229 303.479C201.229 303.479 123.982 397.099 131.118 483.534C131.118 483.534 135.908 461.098 147.582 413.776C163.097 350.369 201.229 303.479 201.229 303.479Z" fill="#39B54A"/>
<path d="M212.723 284.17C212.723 284.17 161.319 376.405 161.784 463.86C161.784 463.86 177.686 437.063 185.372 386.427C193.142 335.523 205.316 300.323 212.723 284.17Z" fill="url(#paint27_linear)"/>
<path d="M212.597 284.574C212.597 284.574 161.193 376.809 161.659 464.263C161.659 464.263 169.407 430.932 178.676 386.109C189.046 335.869 205.19 300.727 212.597 284.574Z" fill="#39B54A"/>
<path d="M237.665 247.344C237.665 247.344 176.882 343.594 189.245 442.15C189.245 442.15 199.974 420.09 202.204 385.036C204.434 349.981 216.157 295.879 237.665 247.344Z" fill="url(#paint28_linear)"/>
<path d="M237.632 247.924C237.632 247.924 176.849 344.174 189.211 442.73C189.211 442.73 193.934 419.09 195.718 384.044C198.222 335.336 215.989 296.417 237.632 247.924Z" fill="#39B54A"/>
<path d="M272.845 207.066C272.845 207.066 198.321 324.14 209.153 426.65C209.153 426.65 223.354 392.526 225.115 365.598C226.699 338.762 238.31 274.137 272.845 207.066Z" fill="url(#paint29_linear)"/>
<path d="M272.677 207.604C272.677 207.604 198.153 324.678 208.986 427.188C208.986 427.188 215.75 391.333 217.51 364.405C219.094 337.57 238.185 274.54 272.677 207.604Z" fill="#39B54A"/>
<path d="M305.735 193.994C305.735 193.994 229.379 278.143 231.393 407.002C231.393 407.002 238.5 403.165 248.506 345.572C258.513 287.979 268.516 253.579 305.735 193.994Z" fill="url(#paint30_linear)"/>
<path d="M305.735 193.994C305.735 193.994 229.345 278.723 231.359 407.583C231.359 407.583 232.544 401.896 242.55 344.303C252.556 286.71 270.406 242.794 305.735 193.994Z" fill="#39B54A"/>
<path d="M310.096 205.106C310.096 205.106 245.315 327.881 250.678 384.512C250.678 384.512 265.815 362.056 275.58 315.172C285.344 268.288 288.799 255.332 310.096 205.106Z" fill="url(#paint31_linear)"/>
<path d="M310.096 205.106C310.096 205.106 245.314 327.881 250.677 384.512C250.677 384.512 256.26 368.527 266.092 325.21C276.992 277.055 288.798 255.332 310.096 205.106Z" fill="#39B54A"/>
<path d="M351.971 162.783C351.971 162.783 266.617 306.021 266.573 371.452C266.573 371.452 289.477 321.285 300.631 279.414C311.785 237.544 351.971 162.783 351.971 162.783Z" fill="url(#paint32_linear)"/>
<path d="M351.971 162.783C351.971 162.783 266.617 306.021 266.573 371.452C266.573 371.452 276.223 337.237 292.784 288.93C306.9 247.984 351.971 162.783 351.971 162.783Z" fill="#39B54A"/>
<path d="M390.389 123.96C390.389 123.96 313.856 250.304 307.833 324.948C307.833 324.948 319.345 304.167 334.275 261.556C349.206 218.944 366.752 170.796 390.389 123.96Z" fill="url(#paint33_linear)"/>
<path d="M390.389 123.96C390.389 123.96 313.856 250.304 307.833 324.948C307.833 324.948 314.507 303.1 329.346 260.312C344.184 217.523 366.752 170.796 390.389 123.96Z" fill="#39B54A"/>
<path d="M363.444 163.411C363.444 163.411 307.713 239.227 285.176 353.034C285.176 353.034 300.194 321.972 313.932 286.965C327.846 251.866 330.563 214.304 363.444 163.411Z" fill="url(#paint34_linear)"/>
<path d="M363.444 163.411C363.444 163.411 307.713 239.227 285.176 353.034C285.176 353.034 294.59 318.154 308.37 283.013C322.285 247.913 330.563 214.304 363.444 163.411Z" fill="#39B54A"/>
<path d="M-67.7305 606.55C-67.7305 606.55 240.534 472.347 364.146 249.166C365.785 246.28 365.036 244.421 366.541 241.494C366.541 241.494 250.197 459.853 -80.5697 597.518L-67.7305 606.55Z" fill="url(#paint35_linear)"/>
<defs>
<linearGradient id="paint0_linear" x1="57.3602" y1="640.719" x2="18.0231" y2="558.077" gradientUnits="userSpaceOnUse">
<stop stop-color="#54B948"/>
<stop offset="0.3764" stop-color="#00A651"/>
<stop offset="1" stop-color="#005826"/>
</linearGradient>
<linearGradient id="paint1_linear" x1="120.725" y1="644.786" x2="68.1978" y2="534.433" gradientUnits="userSpaceOnUse">
<stop stop-color="#54B948"/>
<stop offset="0.3764" stop-color="#00A651"/>
<stop offset="1" stop-color="#005826"/>
</linearGradient>
<linearGradient id="paint2_linear" x1="149.175" y1="606.256" x2="106.345" y2="516.276" gradientUnits="userSpaceOnUse">
<stop stop-color="#54B948"/>
<stop offset="0.3764" stop-color="#00A651"/>
<stop offset="1" stop-color="#005826"/>
</linearGradient>
<linearGradient id="paint3_linear" x1="166.82" y1="585.362" x2="127.829" y2="503.446" gradientUnits="userSpaceOnUse">
<stop stop-color="#54B948"/>
<stop offset="0.3764" stop-color="#00A651"/>
<stop offset="1" stop-color="#005826"/>
</linearGradient>
<linearGradient id="paint4_linear" x1="200.969" y1="559.216" x2="163.796" y2="481.12" gradientUnits="userSpaceOnUse">
<stop stop-color="#54B948"/>
<stop offset="0.3764" stop-color="#00A651"/>
<stop offset="1" stop-color="#005826"/>
</linearGradient>
<linearGradient id="paint5_linear" x1="221.27" y1="537.06" x2="187.329" y2="465.754" gradientUnits="userSpaceOnUse">
<stop stop-color="#54B948"/>
<stop offset="0.3764" stop-color="#00A651"/>
<stop offset="1" stop-color="#005826"/>
</linearGradient>
<linearGradient id="paint6_linear" x1="242.286" y1="510.396" x2="212.588" y2="448.004" gradientUnits="userSpaceOnUse">
<stop stop-color="#54B948"/>
<stop offset="0.3764" stop-color="#00A651"/>
<stop offset="1" stop-color="#005826"/>
</linearGradient>
<linearGradient id="paint7_linear" x1="264.469" y1="488.644" x2="236.892" y2="430.709" gradientUnits="userSpaceOnUse">
<stop stop-color="#54B948"/>
<stop offset="0.3764" stop-color="#00A651"/>
<stop offset="1" stop-color="#005826"/>
</linearGradient>
<linearGradient id="paint8_linear" x1="302.611" y1="457.217" x2="276.548" y2="402.462" gradientUnits="userSpaceOnUse">
<stop stop-color="#54B948"/>
<stop offset="0.3764" stop-color="#00A651"/>
<stop offset="1" stop-color="#005826"/>
</linearGradient>
<linearGradient id="paint9_linear" x1="334.637" y1="428.253" x2="310.06" y2="376.619" gradientUnits="userSpaceOnUse">
<stop stop-color="#54B948"/>
<stop offset="0.3764" stop-color="#00A651"/>
<stop offset="1" stop-color="#005826"/>
</linearGradient>
<linearGradient id="paint10_linear" x1="346.249" y1="393.041" x2="330.105" y2="359.125" gradientUnits="userSpaceOnUse">
<stop stop-color="#54B948"/>
<stop offset="0.3764" stop-color="#00A651"/>
<stop offset="1" stop-color="#005826"/>
</linearGradient>
<linearGradient id="paint11_linear" x1="341.842" y1="371.75" x2="331.257" y2="349.511" gradientUnits="userSpaceOnUse">
<stop stop-color="#54B948"/>
<stop offset="0.3764" stop-color="#00A651"/>
<stop offset="1" stop-color="#005826"/>
</linearGradient>
<linearGradient id="paint12_linear" x1="375.956" y1="335.822" x2="370.162" y2="323.65" gradientUnits="userSpaceOnUse">
<stop stop-color="#54B948"/>
<stop offset="0.3764" stop-color="#00A651"/>
<stop offset="1" stop-color="#005826"/>
</linearGradient>
<linearGradient id="paint13_linear" x1="382.939" y1="316.514" x2="378.057" y2="306.257" gradientUnits="userSpaceOnUse">
<stop stop-color="#54B948"/>
<stop offset="0.3764" stop-color="#00A651"/>
<stop offset="1" stop-color="#005826"/>
</linearGradient>
<linearGradient id="paint14_linear" x1="394.516" y1="289.652" x2="385.189" y2="270.057" gradientUnits="userSpaceOnUse">
<stop stop-color="#54B948"/>
<stop offset="0.3764" stop-color="#00A651"/>
<stop offset="1" stop-color="#005826"/>
</linearGradient>
<linearGradient id="paint15_linear" x1="414.237" y1="253.619" x2="402.926" y2="229.857" gradientUnits="userSpaceOnUse">
<stop stop-color="#54B948"/>
<stop offset="0.3764" stop-color="#00A651"/>
<stop offset="1" stop-color="#005826"/>
</linearGradient>
<linearGradient id="paint16_linear" x1="424.12" y1="229.1" x2="404.942" y2="188.811" gradientUnits="userSpaceOnUse">
<stop stop-color="#54B948"/>
<stop offset="0.3764" stop-color="#00A651"/>
<stop offset="1" stop-color="#005826"/>
</linearGradient>
<linearGradient id="paint17_linear" x1="356.088" y1="201.554" x2="381.701" y2="207.596" gradientUnits="userSpaceOnUse">
<stop stop-color="#54B948"/>
<stop offset="0.3764" stop-color="#00A651"/>
<stop offset="1" stop-color="#005826"/>
</linearGradient>
<linearGradient id="paint18_linear" x1="371.067" y1="172.329" x2="424.569" y2="177.574" gradientUnits="userSpaceOnUse">
<stop stop-color="#54B948"/>
<stop offset="0.3764" stop-color="#00A651"/>
<stop offset="1" stop-color="#005826"/>
</linearGradient>
<linearGradient id="paint19_linear" x1="428.682" y1="217.598" x2="395.611" y2="148.122" gradientUnits="userSpaceOnUse">
<stop stop-color="#54B948"/>
<stop offset="0.3764" stop-color="#00A651"/>
<stop offset="1" stop-color="#005826"/>
</linearGradient>
<linearGradient id="paint20_linear" x1="-40.0458" y1="477.638" x2="15.0962" y2="550.689" gradientUnits="userSpaceOnUse">
<stop stop-color="#54B948"/>
<stop offset="0.3764" stop-color="#00A651"/>
<stop offset="1" stop-color="#005826"/>
</linearGradient>
<linearGradient id="paint21_linear" x1="-12.9698" y1="420.844" x2="60.6621" y2="518.39" gradientUnits="userSpaceOnUse">
<stop stop-color="#54B948"/>
<stop offset="0.3764" stop-color="#00A651"/>
<stop offset="1" stop-color="#005826"/>
</linearGradient>
<linearGradient id="paint22_linear" x1="20.3096" y1="415.496" x2="88.4068" y2="488.249" gradientUnits="userSpaceOnUse">
<stop stop-color="#54B948"/>
<stop offset="0.3764" stop-color="#00A651"/>
<stop offset="1" stop-color="#005826"/>
</linearGradient>
<linearGradient id="paint23_linear" x1="43.6289" y1="415.742" x2="109.082" y2="478.568" gradientUnits="userSpaceOnUse">
<stop stop-color="#54B948"/>
<stop offset="0.3764" stop-color="#00A651"/>
<stop offset="1" stop-color="#005826"/>
</linearGradient>
<linearGradient id="paint24_linear" x1="84.7635" y1="389.005" x2="145.17" y2="450.906" gradientUnits="userSpaceOnUse">
<stop stop-color="#54B948"/>
<stop offset="0.3764" stop-color="#00A651"/>
<stop offset="1" stop-color="#005826"/>
</linearGradient>
<linearGradient id="paint25_linear" x1="112.507" y1="381.924" x2="168.009" y2="438.096" gradientUnits="userSpaceOnUse">
<stop stop-color="#54B948"/>
<stop offset="0.3764" stop-color="#00A651"/>
<stop offset="1" stop-color="#005826"/>
</linearGradient>
<linearGradient id="paint26_linear" x1="140.794" y1="369.789" x2="191.966" y2="416.222" gradientUnits="userSpaceOnUse">
<stop stop-color="#54B948"/>
<stop offset="0.3764" stop-color="#00A651"/>
<stop offset="1" stop-color="#005826"/>
</linearGradient>
<linearGradient id="paint27_linear" x1="161.256" y1="355.091" x2="213.208" y2="392.743" gradientUnits="userSpaceOnUse">
<stop stop-color="#54B948"/>
<stop offset="0.3764" stop-color="#00A651"/>
<stop offset="1" stop-color="#005826"/>
</linearGradient>
<linearGradient id="paint28_linear" x1="187.662" y1="328.876" x2="239.341" y2="360.596" gradientUnits="userSpaceOnUse">
<stop stop-color="#54B948"/>
<stop offset="0.3764" stop-color="#00A651"/>
<stop offset="1" stop-color="#005826"/>
</linearGradient>
<linearGradient id="paint29_linear" x1="216.226" y1="302.23" x2="265.424" y2="331.383" gradientUnits="userSpaceOnUse">
<stop stop-color="#54B948"/>
<stop offset="0.3764" stop-color="#00A651"/>
<stop offset="1" stop-color="#005826"/>
</linearGradient>
<linearGradient id="paint30_linear" x1="248.638" y1="290.373" x2="282.208" y2="307.219" gradientUnits="userSpaceOnUse">
<stop stop-color="#54B948"/>
<stop offset="0.3764" stop-color="#00A651"/>
<stop offset="1" stop-color="#005826"/>
</linearGradient>
<linearGradient id="paint31_linear" x1="269.481" y1="289.648" x2="291.715" y2="300.239" gradientUnits="userSpaceOnUse">
<stop stop-color="#54B948"/>
<stop offset="0.3764" stop-color="#00A651"/>
<stop offset="1" stop-color="#005826"/>
</linearGradient>
<linearGradient id="paint32_linear" x1="299.655" y1="262.969" x2="311.995" y2="268.396" gradientUnits="userSpaceOnUse">
<stop stop-color="#54B948"/>
<stop offset="0.3764" stop-color="#00A651"/>
<stop offset="1" stop-color="#005826"/>
</linearGradient>
<linearGradient id="paint33_linear" x1="339.764" y1="220.652" x2="350.282" y2="224.94" gradientUnits="userSpaceOnUse">
<stop stop-color="#54B948"/>
<stop offset="0.3764" stop-color="#00A651"/>
<stop offset="1" stop-color="#005826"/>
</linearGradient>
<linearGradient id="paint34_linear" x1="326.469" y1="241.462" x2="291.3" y2="331.086" gradientUnits="userSpaceOnUse">
<stop stop-color="#54B948"/>
<stop offset="0.3764" stop-color="#00A651"/>
<stop offset="1" stop-color="#005826"/>
</linearGradient>
<linearGradient id="paint35_linear" x1="212.956" y1="391.731" x2="-144.36" y2="577.62" gradientUnits="userSpaceOnUse">
<stop stop-color="#54B948"/>
<stop offset="0.3764" stop-color="#00A651"/>
<stop offset="1" stop-color="#005826"/>
</linearGradient>
</defs>
</svg>
