<svg width="261" height="691" viewBox="0 0 261 691" fill="none" xmlns="http://www.w3.org/2000/svg">
<path d="M-111.515 620.905C-111.515 620.905 -7.8372 632.275 74.9639 582.106C74.9639 582.106 29.1201 607.527 -23.0922 607.681C-75.3262 607.695 -102.017 614.999 -111.515 620.905Z" fill="url(#paint0_linear)"/>
<path d="M-96.9725 602.509C-96.9725 602.509 34.0474 595.197 95.1279 520.158C95.1279 520.158 57.5797 559.413 -13.1399 573.587C-83.6984 587.878 -96.9725 602.509 -96.9725 602.509Z" fill="url(#paint1_linear)"/>
<path d="M-77.3397 573.756C-77.3397 573.756 29.334 562.25 95.623 501.384C95.623 501.384 35.1831 534.792 -17.5154 548.294C-51.1514 556.825 -77.3397 573.756 -77.3397 573.756Z" fill="url(#paint2_linear)"/>
<path d="M125.703 449.022C125.703 449.022 54.0848 529.702 -65.7966 551.688C-65.7966 551.688 -29.1348 524.132 24.9274 506.563C79.0114 489.133 125.703 449.022 125.703 449.022Z" fill="url(#paint3_linear)"/>
<path d="M131.065 423.922C131.065 423.922 73.8693 495.501 -48.4648 523.722C-48.4648 523.722 -15.2645 496.848 20.2095 485.462C55.6617 473.936 90.5744 460.782 131.065 423.922Z" fill="url(#paint4_linear)"/>
<path d="M135.291 394.291C135.291 394.291 55.6765 485.923 -30.8506 493C-30.8506 493 -2.8935 470.941 45.1736 452.452C93.2407 433.963 135.291 394.291 135.291 394.291Z" fill="url(#paint5_linear)"/>
<path d="M144.034 367.094C144.034 367.094 69.3042 441.551 -14.9799 464.834C-14.9799 464.834 6.46827 442.22 53.1253 421.097C99.7823 399.973 130.399 378.498 144.034 367.094Z" fill="url(#paint6_linear)"/>
<path d="M169.281 315.771C169.281 315.771 99.8378 405.816 2.99721 428.204C2.99721 428.204 20.0599 410.414 52.1296 396.419C84.317 382.263 131.085 352.701 169.281 315.771Z" fill="url(#paint7_linear)"/>
<path d="M194.559 263.73C194.559 263.73 112.049 375.224 12.4727 402.035C12.4727 402.035 39.3073 376.44 63.6744 365.217C88.0415 353.994 144.384 319.941 194.559 263.73Z" fill="url(#paint8_linear)"/>
<path d="M184.08 221.264C184.08 221.264 140.078 326.179 22.3838 378.652C22.3838 378.652 22.8384 370.589 70.7129 337.144C118.587 303.699 145.77 280.333 184.08 221.264Z" fill="url(#paint9_linear)"/>
<path d="M165.214 222.923C165.214 222.923 83.6703 335.122 30.4608 355.413C30.4608 355.413 43.9197 331.905 81.714 302.459C119.53 273.152 129.546 264.168 165.214 222.923Z" fill="url(#paint10_linear)"/>
<path d="M186.097 156.439C186.097 156.439 99.4174 298.841 41.695 329.541C41.695 329.541 75.2561 285.769 107.046 256.261C138.998 226.871 186.097 156.439 186.097 156.439Z" fill="url(#paint11_linear)"/>
<path d="M179.131 137.402C179.131 137.402 106.875 266.135 44.7698 308.08C44.7698 308.08 57.1743 287.877 86.9715 253.827C116.769 219.777 150.094 180.895 179.131 137.402Z" fill="url(#paint12_linear)"/>
<path d="M164.355 106.738C164.355 106.738 134.533 194.598 53.4098 277.474C53.4098 277.474 69.4518 248.568 90.6885 217.281C111.925 185.994 140.984 162.764 164.355 106.738Z" fill="url(#paint13_linear)"/>
<path d="M-111.91 621.109C-111.91 621.109 -8.2327 632.479 74.5684 582.31C74.5684 582.31 42.1399 604.068 -29.8673 612.733C-71.3264 617.775 -90.0748 619.273 -111.91 621.109Z" fill="#39B54A"/>
<path d="M-97.5081 602.735C-97.5081 602.735 33.9081 595.219 95.1279 520.158C95.1279 520.158 57.4531 560.432 -12.1528 578.999C-67.2507 593.59 -97.5081 602.735 -97.5081 602.735Z" fill="#39B54A"/>
<path d="M-77.7359 573.96C-77.7359 573.96 29.4734 562.229 95.623 501.384C95.623 501.384 52.8692 532.889 -16.1844 554.081C-42.4665 562.178 -77.7359 573.96 -77.7359 573.96Z" fill="#39B54A"/>
<path d="M125.703 449.022C125.703 449.022 53.6886 529.906 -66.1929 551.893C-66.1929 551.893 -20.5596 533.355 23.0578 514.704C75.2445 492.432 125.703 449.022 125.703 449.022Z" fill="#39B54A"/>
<path d="M131.065 423.922C131.065 423.922 73.8693 495.501 -48.4648 523.722C-48.4648 523.722 -13.2763 504.102 22.1976 492.716C57.6716 481.33 90.5744 460.782 131.065 423.922Z" fill="#39B54A"/>
<path d="M134.895 394.495C134.895 394.495 55.28 486.127 -31.2471 493.205C-31.2471 493.205 -9.87617 484.733 34.9518 465.607C94.8936 439.985 134.895 394.495 134.895 394.495Z" fill="#39B54A"/>
<path d="M143.5 367.32C143.5 367.32 68.77 441.777 -15.5141 465.06C-15.5141 465.06 14.3097 448.561 55.1237 427.493C100.671 403.831 130.005 378.702 143.5 367.32Z" fill="#39B54A"/>
<path d="M168.885 315.976C168.885 315.976 99.4414 406.021 2.60075 428.409C2.60075 428.409 23.2019 415.918 55.4328 402.041C100.143 383.076 130.688 352.906 168.885 315.976Z" fill="#39B54A"/>
<path d="M194.024 263.956C194.024 263.956 111.514 375.45 11.9386 402.261C11.9386 402.261 43.0647 383.133 67.4317 371.909C91.9381 360.664 143.85 320.167 194.024 263.956Z" fill="#39B54A"/>
<path d="M184.08 221.264C184.08 221.264 139.681 326.384 21.9875 378.857C21.9875 378.857 26.5904 375.427 74.6042 341.96C122.618 308.494 154.644 274.096 184.08 221.264Z" fill="#39B54A"/>
<path d="M165.214 222.923C165.214 222.923 83.6703 335.122 30.4608 355.413C30.4608 355.413 42.2931 343.434 76.8956 315.485C115.426 284.354 129.546 264.168 165.214 222.923Z" fill="#39B54A"/>
<path d="M187.112 154.71C187.112 154.71 100.433 297.112 42.7106 327.812C42.7106 327.812 68.4434 303.388 103.283 265.982C132.892 234.388 187.112 154.71 187.112 154.71Z" fill="#39B54A"/>
<path d="M179.131 137.402C179.131 137.402 106.875 266.135 44.7698 308.08C44.7698 308.08 60.5913 291.482 90.4102 257.572C120.229 223.662 150.094 180.895 179.131 137.402Z" fill="#39B54A"/>
<path d="M164.355 106.738C164.355 106.738 134.747 194.137 53.6233 277.013C53.6233 277.013 75.8254 250.999 96.9228 219.734C118.02 188.469 140.984 162.764 164.355 106.738Z" fill="#39B54A"/>
<path d="M154.646 72.8579C154.646 72.8579 111.727 178.318 64.5195 227.929C64.5195 227.929 81.4558 191.033 97.3139 166.437C113.172 141.841 138.746 108.165 154.646 72.8579Z" fill="url(#paint14_linear)"/>
<path d="M154.646 72.8579C154.646 72.8579 111.727 178.318 64.5195 227.929C64.5195 227.929 86.6179 198.506 102.233 170.522C116.385 145.05 138.746 108.165 154.646 72.8579Z" fill="#39B54A"/>
<path d="M130.57 44.7874C130.57 44.7874 115.603 135.468 70.8015 192.268C70.8015 192.268 73.9736 181.497 85.8702 154.379C97.7668 127.261 119.905 96.2614 130.57 44.7874Z" fill="url(#paint15_linear)"/>
<path d="M130.57 44.7874C130.57 44.7874 115.603 135.468 70.8015 192.268C70.8015 192.268 80.5399 178.759 92.4365 151.642C104.333 124.524 119.905 96.2614 130.57 44.7874Z" fill="#39B54A"/>
<path d="M50.7197 45.2567C50.7197 45.2567 44.3463 159.001 65.6268 224.045C65.6268 224.045 66.1409 183.432 62.3377 154.482C58.5345 125.532 50.0623 84.037 50.7197 45.2567Z" fill="url(#paint16_linear)"/>
<path d="M50.7197 45.2567C50.7197 45.2567 44.3463 159.001 65.6268 224.045C65.6268 224.045 58.2811 187.941 56.1548 156.017C54.3239 126.902 50.0623 84.037 50.7197 45.2567Z" fill="#39B54A"/>
<path d="M69.0742 14.705C69.0742 14.705 47.0485 108.627 72.2688 176.053C72.2688 176.053 73.338 164.612 71.8165 134.735C70.2949 104.858 59.0569 68.5041 69.0742 14.705Z" fill="url(#paint17_linear)"/>
<path d="M69.0742 14.705C69.0742 14.705 47.0485 108.627 72.2688 176.053C72.2688 176.053 67.2392 160.282 65.6959 130.266C64.1526 100.25 59.0569 68.5041 69.0742 14.705Z" fill="#39B54A"/>
<path d="M72.7516 176.406C72.7516 176.406 102.088 101.895 101.401 16.0837C101.401 16.0837 71.414 122.095 72.7516 176.406Z" fill="url(#paint18_linear)"/>
<path d="M72.7516 176.406C72.7516 176.406 102.088 101.895 101.401 16.0837C101.401 16.0837 88.0912 114.641 72.7516 176.406Z" fill="#39B54A"/>
<path d="M-41.0251 231.123C-41.0251 231.123 -53.0499 344.322 1.56897 427.286C1.56897 427.286 1.45253 402.756 -12.0287 370.32C-25.5099 337.885 -38.8862 284.167 -41.0251 231.123Z" fill="url(#paint19_linear)"/>
<path d="M-40.7985 231.659C-40.7985 231.659 -52.8232 344.858 1.79565 427.821C1.79565 427.821 -4.40785 404.526 -18.2853 372.295C-37.5501 327.489 -38.7988 284.725 -40.7985 231.659Z" fill="#39B54A"/>
<path d="M-27.2504 179.449C-27.2504 179.449 -42.4068 317.4 12.5855 404.587C12.5855 404.587 10.2557 367.7 -0.0574807 342.762C-10.4883 317.986 -28.6126 254.877 -27.2504 179.449Z" fill="url(#paint20_linear)"/>
<path d="M-27.1633 180.007C-27.1633 180.007 -42.3197 317.957 12.6726 405.144C12.6726 405.144 2.90594 369.988 -7.40728 345.051C-17.8381 320.275 -28.5473 255.294 -27.1633 180.007Z" fill="#39B54A"/>
<path d="M-3.51465 153.196C-3.51465 153.196 -34.8568 262.416 23.8607 377.137C23.8607 377.137 28.5426 370.555 12.0842 314.464C-4.37412 258.373 -10.5923 223.092 -3.51465 153.196Z" fill="url(#paint21_linear)"/>
<path d="M-3.51465 153.196C-3.51465 153.196 -34.6305 262.951 24.0869 377.673C24.0869 377.673 22.6383 372.047 6.17998 315.956C-10.2784 259.865 -13.6595 212.581 -3.51465 153.196Z" fill="#39B54A"/>
<path d="M5.30493 161.239C5.30493 161.239 1.40763 300.002 31.2299 348.442C31.2299 348.442 34.8932 321.61 22.9477 275.233C11.0022 228.857 8.37969 215.707 5.30493 161.239Z" fill="url(#paint22_linear)"/>
<path d="M5.30469 161.24C5.30469 161.24 1.40738 300.003 31.2296 348.442C31.2296 348.442 29.1783 331.636 18.8692 288.429C7.38123 240.412 8.37944 215.708 5.30469 161.24Z" fill="#39B54A"/>
<path d="M24.1816 104.774C24.1816 104.774 10.865 270.982 39.7227 329.705C39.7227 329.705 38.1154 274.58 29.6304 232.088C21.1454 189.596 24.1816 104.774 24.1816 104.774Z" fill="url(#paint23_linear)"/>
<path d="M24.1816 104.774C24.1816 104.774 10.865 270.982 39.7227 329.705C39.7227 329.705 33.2693 294.746 26.7933 244.091C21.3736 201.121 24.1816 104.774 24.1816 104.774Z" fill="#39B54A"/>
<path d="M41.5049 52.9745C41.5049 52.9745 28.641 200.13 56.2032 269.76C56.2032 269.76 57.3535 246.031 51.9299 201.206C46.5062 156.381 40.9837 105.435 41.5049 52.9745Z" fill="url(#paint24_linear)"/>
<path d="M41.5049 52.9745C41.5049 52.9745 28.641 200.13 56.2032 269.76C56.2032 269.76 52.5422 247.21 46.9574 202.267C41.3727 157.325 40.9837 105.435 41.5049 52.9745Z" fill="#39B54A"/>
<path d="M34.7539 100.27C34.7539 100.27 18.2362 192.905 48.2793 304.964C48.2793 304.964 48.0345 270.463 44.8994 232.988C41.8818 195.352 27.7306 160.452 34.7539 100.27Z" fill="url(#paint25_linear)"/>
<path d="M34.7539 100.27C34.7539 100.27 18.2362 192.905 48.2793 304.964C48.2793 304.964 41.321 269.513 38.1641 231.898C35.1465 194.262 27.7306 160.452 34.7539 100.27Z" fill="#39B54A"/>
<path d="M-156.379 688.276C-156.379 688.276 60.9215 431.727 73.2566 176.899C73.4532 173.585 71.9601 172.248 72.0175 168.957C72.0175 168.957 64.0729 416.249 -171.887 685.843L-156.379 688.276Z" fill="url(#paint26_linear)"/>
<defs>
<linearGradient id="paint0_linear" x1="29.5893" y1="639.35" x2="-66.2751" y2="563.542" gradientUnits="userSpaceOnUse">
<stop stop-color="#54B948"/>
<stop offset="0.3764" stop-color="#00A651"/>
<stop offset="1" stop-color="#005826"/>
</linearGradient>
<linearGradient id="paint1_linear" x1="38.0966" y1="592.217" x2="-40.0699" y2="530.403" gradientUnits="userSpaceOnUse">
<stop stop-color="#54B948"/>
<stop offset="0.3764" stop-color="#00A651"/>
<stop offset="1" stop-color="#005826"/>
</linearGradient>
<linearGradient id="paint2_linear" x1="44.6997" y1="565.678" x2="-26.4611" y2="509.404" gradientUnits="userSpaceOnUse">
<stop stop-color="#54B948"/>
<stop offset="0.3764" stop-color="#00A651"/>
<stop offset="1" stop-color="#005826"/>
</linearGradient>
<linearGradient id="paint3_linear" x1="63.7902" y1="527.138" x2="-4.05237" y2="473.489" gradientUnits="userSpaceOnUse">
<stop stop-color="#54B948"/>
<stop offset="0.3764" stop-color="#00A651"/>
<stop offset="1" stop-color="#005826"/>
</linearGradient>
<linearGradient id="paint4_linear" x1="72.2182" y1="498.294" x2="10.275" y2="449.31" gradientUnits="userSpaceOnUse">
<stop stop-color="#54B948"/>
<stop offset="0.3764" stop-color="#00A651"/>
<stop offset="1" stop-color="#005826"/>
</linearGradient>
<linearGradient id="paint5_linear" x1="79.2987" y1="465.09" x2="25.0984" y2="422.229" gradientUnits="userSpaceOnUse">
<stop stop-color="#54B948"/>
<stop offset="0.3764" stop-color="#00A651"/>
<stop offset="1" stop-color="#005826"/>
</linearGradient>
<linearGradient id="paint6_linear" x1="89.5934" y1="435.777" x2="39.2646" y2="395.977" gradientUnits="userSpaceOnUse">
<stop stop-color="#54B948"/>
<stop offset="0.3764" stop-color="#00A651"/>
<stop offset="1" stop-color="#005826"/>
</linearGradient>
<linearGradient id="paint7_linear" x1="109.934" y1="390.735" x2="62.3684" y2="353.121" gradientUnits="userSpaceOnUse">
<stop stop-color="#54B948"/>
<stop offset="0.3764" stop-color="#00A651"/>
<stop offset="1" stop-color="#005826"/>
</linearGradient>
<linearGradient id="paint8_linear" x1="125.876" y1="350.605" x2="81.0212" y2="315.135" gradientUnits="userSpaceOnUse">
<stop stop-color="#54B948"/>
<stop offset="0.3764" stop-color="#00A651"/>
<stop offset="1" stop-color="#005826"/>
</linearGradient>
<linearGradient id="paint9_linear" x1="120.743" y1="313.885" x2="91.2802" y2="290.586" gradientUnits="userSpaceOnUse">
<stop stop-color="#54B948"/>
<stop offset="0.3764" stop-color="#00A651"/>
<stop offset="1" stop-color="#005826"/>
</linearGradient>
<linearGradient id="paint10_linear" x1="107.385" y1="296.729" x2="88.066" y2="281.452" gradientUnits="userSpaceOnUse">
<stop stop-color="#54B948"/>
<stop offset="0.3764" stop-color="#00A651"/>
<stop offset="1" stop-color="#005826"/>
</linearGradient>
<linearGradient id="paint11_linear" x1="122.125" y1="249.429" x2="111.551" y2="241.067" gradientUnits="userSpaceOnUse">
<stop stop-color="#54B948"/>
<stop offset="0.3764" stop-color="#00A651"/>
<stop offset="1" stop-color="#005826"/>
</linearGradient>
<linearGradient id="paint12_linear" x1="119.863" y1="229.022" x2="110.952" y2="221.976" gradientUnits="userSpaceOnUse">
<stop stop-color="#54B948"/>
<stop offset="0.3764" stop-color="#00A651"/>
<stop offset="1" stop-color="#005826"/>
</linearGradient>
<linearGradient id="paint13_linear" x1="118.385" y1="199.808" x2="101.363" y2="186.347" gradientUnits="userSpaceOnUse">
<stop stop-color="#54B948"/>
<stop offset="0.3764" stop-color="#00A651"/>
<stop offset="1" stop-color="#005826"/>
</linearGradient>
<linearGradient id="paint14_linear" x1="120.164" y1="158.771" x2="99.5224" y2="142.447" gradientUnits="userSpaceOnUse">
<stop stop-color="#54B948"/>
<stop offset="0.3764" stop-color="#00A651"/>
<stop offset="1" stop-color="#005826"/>
</linearGradient>
<linearGradient id="paint15_linear" x1="118.203" y1="132.408" x2="83.2037" y2="104.731" gradientUnits="userSpaceOnUse">
<stop stop-color="#54B948"/>
<stop offset="0.3764" stop-color="#00A651"/>
<stop offset="1" stop-color="#005826"/>
</linearGradient>
<linearGradient id="paint16_linear" x1="44.9991" y1="137.741" x2="70.6474" y2="131.849" gradientUnits="userSpaceOnUse">
<stop stop-color="#54B948"/>
<stop offset="0.3764" stop-color="#00A651"/>
<stop offset="1" stop-color="#005826"/>
</linearGradient>
<linearGradient id="paint17_linear" x1="45.5319" y1="104.904" x2="95.8492" y2="85.9807" gradientUnits="userSpaceOnUse">
<stop stop-color="#54B948"/>
<stop offset="0.3764" stop-color="#00A651"/>
<stop offset="1" stop-color="#005826"/>
</linearGradient>
<linearGradient id="paint18_linear" x1="117.215" y1="120.074" x2="56.8609" y2="72.3464" gradientUnits="userSpaceOnUse">
<stop stop-color="#54B948"/>
<stop offset="0.3764" stop-color="#00A651"/>
<stop offset="1" stop-color="#005826"/>
</linearGradient>
<linearGradient id="paint19_linear" x1="-49.8784" y1="326.357" x2="10.4959" y2="331.992" gradientUnits="userSpaceOnUse">
<stop stop-color="#54B948"/>
<stop offset="0.3764" stop-color="#00A651"/>
<stop offset="1" stop-color="#005826"/>
</linearGradient>
<linearGradient id="paint20_linear" x1="-36.0186" y1="289.836" x2="20.9961" y2="294.263" gradientUnits="userSpaceOnUse">
<stop stop-color="#54B948"/>
<stop offset="0.3764" stop-color="#00A651"/>
<stop offset="1" stop-color="#005826"/>
</linearGradient>
<linearGradient id="paint21_linear" x1="-12.1756" y1="264.883" x2="25.3824" y2="265.17" gradientUnits="userSpaceOnUse">
<stop stop-color="#54B948"/>
<stop offset="0.3764" stop-color="#00A651"/>
<stop offset="1" stop-color="#005826"/>
</linearGradient>
<linearGradient id="paint22_linear" x1="6.20387" y1="255.027" x2="30.8292" y2="254.709" gradientUnits="userSpaceOnUse">
<stop stop-color="#54B948"/>
<stop offset="0.3764" stop-color="#00A651"/>
<stop offset="1" stop-color="#005826"/>
</linearGradient>
<linearGradient id="paint23_linear" x1="21.492" y1="217.765" x2="34.9602" y2="217.183" gradientUnits="userSpaceOnUse">
<stop stop-color="#54B948"/>
<stop offset="0.3764" stop-color="#00A651"/>
<stop offset="1" stop-color="#005826"/>
</linearGradient>
<linearGradient id="paint24_linear" x1="38.7888" y1="162.084" x2="50.1196" y2="161.286" gradientUnits="userSpaceOnUse">
<stop stop-color="#54B948"/>
<stop offset="0.3764" stop-color="#00A651"/>
<stop offset="1" stop-color="#005826"/>
</linearGradient>
<linearGradient id="paint25_linear" x1="36.0514" y1="186.626" x2="44.0808" y2="282.568" gradientUnits="userSpaceOnUse">
<stop stop-color="#54B948"/>
<stop offset="0.3764" stop-color="#00A651"/>
<stop offset="1" stop-color="#005826"/>
</linearGradient>
<linearGradient id="paint26_linear" x1="0.574386" y1="371.579" x2="-237.907" y2="696.164" gradientUnits="userSpaceOnUse">
<stop stop-color="#54B948"/>
<stop offset="0.3764" stop-color="#00A651"/>
<stop offset="1" stop-color="#005826"/>
</linearGradient>
</defs>
</svg>
