<svg width="566" height="747" viewBox="0 0 566 747" fill="none" xmlns="http://www.w3.org/2000/svg">
<g opacity="0.8">
<path d="M573.98 566.089C573.98 566.089 539.978 603.363 460.418 619.882C460.418 619.882 501.733 601.249 522.669 587.431C547.498 571.177 570.783 566.435 573.98 566.089Z" fill="url(#paint0_linear)"/>
<path d="M550.158 557.106C550.158 557.106 466.367 619.214 369.565 617.654C369.565 617.654 421.973 616.484 467.135 590.283C512.246 563.951 538.978 556.796 550.158 557.106Z" fill="url(#paint1_linear)"/>
<path d="M528.322 548.555C528.322 548.555 411.499 608.322 320.91 574.333C320.91 574.333 373.132 589.292 441.346 565.863C509.481 542.616 528.322 548.555 528.322 548.555Z" fill="url(#paint2_linear)"/>
<path d="M496.867 533.629C496.867 533.629 398.952 577.496 311.014 558.372C311.014 558.372 380.052 556.735 432.368 541.816C465.715 532.218 496.867 533.629 496.867 533.629Z" fill="url(#paint3_linear)"/>
<path d="M258.631 528.328C258.631 528.328 361.164 561.873 475.77 520.396C475.77 520.396 430.215 515.091 374.671 527.187C319.179 539.414 258.631 528.328 258.631 528.328Z" fill="url(#paint4_linear)"/>
<path d="M241.341 509.359C241.341 509.359 326.831 542.32 446.699 504.988C446.699 504.988 404.477 498.528 368.102 506.587C331.677 514.515 294.895 520.765 241.341 509.359Z" fill="url(#paint5_linear)"/>
<path d="M222.748 485.903C222.748 485.903 337.71 524.873 415.996 487.344C415.996 487.344 380.729 482.396 329.898 490.674C279.067 498.952 222.748 485.903 222.748 485.903Z" fill="url(#paint6_linear)"/>
<path d="M201.48 466.829C201.48 466.829 303.562 493.432 388.084 471.028C388.084 471.028 358.159 462.318 307.217 467.61C256.275 472.901 219.006 469.8 201.48 466.829Z" fill="url(#paint7_linear)"/>
<path d="M153.795 435.245C153.795 435.245 259.174 477.975 354.087 448.464C354.087 448.464 330.381 441.708 295.63 445.798C260.697 449.808 205.403 447.87 153.795 435.245Z" fill="url(#paint8_linear)"/>
<path d="M105.721 403.057C105.721 403.057 233.201 457.717 332.706 430.647C332.706 430.647 296.626 422.079 269.924 424.678C243.223 427.276 177.396 426.289 105.721 403.057Z" fill="url(#paint9_linear)"/>
<path d="M93.3516 361.102C93.3516 361.102 184.262 429.503 312.356 415.454C312.356 415.454 307.896 408.721 249.689 403.987C191.481 399.253 156.225 392.787 93.3516 361.102Z" fill="url(#paint10_linear)"/>
<path d="M110.479 353.02C110.479 353.02 237.48 408.777 293.659 399.461C293.659 399.461 270.181 385.95 222.695 379.585C175.26 373.352 162.08 370.646 110.479 353.02Z" fill="url(#paint11_linear)"/>
<path d="M58.915 306.143C58.915 306.143 205.583 385.39 270.91 382.786C270.91 382.786 219.854 361.916 177.521 352.47C135.107 343.206 58.915 306.143 58.915 306.143Z" fill="url(#paint12_linear)"/>
<path d="M55.3291 286.191C55.3291 286.191 182.649 360.91 257.432 365.806C257.432 365.806 236.531 354.616 193.628 340.243C150.725 325.869 102.339 309.103 55.3291 286.191Z" fill="url(#paint13_linear)"/>
<path d="M52.6221 252.262C52.6221 252.262 122.686 313.087 234.535 343.736C234.535 343.736 206.104 326.866 171.986 310.561C137.868 294.255 101.06 288.852 52.6221 252.262Z" fill="url(#paint14_linear)"/>
<path d="M573.98 566.089C573.98 566.089 543.522 601.972 460.863 619.858C460.863 619.858 506.452 604.397 531.669 588.748C548.024 578.696 567.172 569.972 573.98 566.089Z" fill="#39B54A"/>
<path d="M550.602 557.083C550.602 557.083 466.811 619.191 370.01 617.631C370.01 617.631 408.985 620.063 475.534 591.229C513.876 574.672 530.821 566.51 550.602 557.083Z" fill="#39B54A"/>
<path d="M528.899 548.48C528.899 548.48 411.631 608.271 320.91 574.333C320.91 574.333 373.755 590.107 443.223 571.034C498.159 555.844 528.899 548.48 528.899 548.48Z" fill="#39B54A"/>
<path d="M497.313 533.606C497.313 533.606 398.821 577.547 311.014 558.372C311.014 558.372 363.821 564.012 434.137 547.484C460.915 541.22 497.313 533.606 497.313 533.606Z" fill="#39B54A"/>
<path d="M258.631 528.328C258.631 528.328 361.61 561.85 476.216 520.373C476.216 520.373 427.462 527.381 380.392 533.274C324.096 540.363 258.631 528.328 258.631 528.328Z" fill="#39B54A"/>
<path d="M241.341 509.359C241.341 509.359 326.831 542.32 446.699 504.988C446.699 504.988 406.419 505.794 370.044 513.854C333.67 521.913 294.895 520.765 241.341 509.359Z" fill="#39B54A"/>
<path d="M223.193 485.88C223.193 485.88 338.155 524.85 416.441 487.321C416.441 487.321 393.714 490.784 345.359 496.878C280.677 504.985 223.193 485.88 223.193 485.88Z" fill="#39B54A"/>
<path d="M202.056 466.754C202.056 466.754 304.138 493.357 388.66 470.953C388.66 470.953 354.586 471.748 308.717 474.14C257.453 476.68 219.45 469.776 202.056 466.754Z" fill="#39B54A"/>
<path d="M154.24 435.222C154.24 435.222 259.619 477.952 354.532 448.441C354.532 448.441 330.443 448.046 295.613 452.318C247.441 458.493 205.849 447.846 154.24 435.222Z" fill="#39B54A"/>
<path d="M106.297 402.982C106.297 402.982 233.777 457.642 333.282 430.572C333.282 430.572 296.757 429.753 270.056 432.351C243.223 435.001 177.972 426.214 106.297 402.982Z" fill="#39B54A"/>
<path d="M93.3516 361.102C93.3516 361.102 184.707 429.48 312.801 415.431C312.801 415.431 307.097 414.791 248.758 410.108C190.419 405.426 145.416 391.877 93.3516 361.102Z" fill="#39B54A"/>
<path d="M110.479 353.02C110.479 353.02 237.48 408.777 293.659 399.461C293.659 399.461 277.4 395.084 233.425 388.403C184.453 380.955 162.08 370.646 110.479 353.02Z" fill="#39B54A"/>
<path d="M57.166 305.163C57.166 305.163 203.834 384.409 269.161 381.805C269.161 381.805 234.622 373.694 185.673 358.966C144.171 346.618 57.166 305.163 57.166 305.163Z" fill="#39B54A"/>
<path d="M55.3291 286.191C55.3291 286.191 182.649 360.91 257.432 365.806C257.432 365.806 235.399 359.453 192.548 345.211C149.696 330.969 102.339 309.103 55.3291 286.191Z" fill="#39B54A"/>
<path d="M52.6221 252.262C52.6221 252.262 122.269 312.797 234.118 343.445C234.118 343.445 201.826 332.179 167.84 315.823C133.854 299.466 101.06 288.852 52.6221 252.262Z" fill="#39B54A"/>
<path d="M43.918 218.109C43.918 218.109 134.167 287.527 199.952 306.557C199.952 306.557 166.719 283.239 140.621 269.999C114.522 256.758 75.4545 240.577 43.918 218.109Z" fill="url(#paint15_linear)"/>
<path d="M43.918 218.109C43.918 218.109 134.167 287.527 199.952 306.557C199.952 306.557 166.031 292.295 138.434 276.007C113.367 261.15 75.4545 240.577 43.918 218.109Z" fill="#39B54A"/>
<path d="M50.5498 181.728C50.5498 181.728 109.209 252.481 176.542 278.931C176.542 278.931 168.371 271.231 144.421 253.814C120.471 236.398 85.7207 220.796 50.5498 181.728Z" fill="url(#paint16_linear)"/>
<path d="M50.5498 181.728C50.5498 181.728 109.209 252.481 176.542 278.931C176.542 278.931 161.32 272.179 137.371 254.763C113.421 237.347 85.7207 220.796 50.5498 181.728Z" fill="#39B54A"/>
<path d="M119.736 141.86C119.736 141.86 182.608 236.864 197.037 303.761C197.037 303.761 176.11 268.951 164.793 242.035C153.475 215.119 139.863 175.015 119.736 141.86Z" fill="url(#paint17_linear)"/>
<path d="M119.736 141.86C119.736 141.86 182.608 236.864 197.037 303.761C197.037 303.761 185.171 268.881 170.906 240.243C157.803 214.178 139.863 175.015 119.736 141.86Z" fill="#39B54A"/>
<path d="M88.4785 124.736C88.4785 124.736 154.868 194.728 167.097 265.671C167.097 265.671 160.403 256.33 146.648 229.764C132.893 203.198 124.262 166.139 88.4785 124.736Z" fill="url(#paint18_linear)"/>
<path d="M88.4785 124.736C88.4785 124.736 154.868 194.728 167.097 265.671C167.097 265.671 163.486 249.516 149.68 222.818C135.873 196.121 124.262 166.139 88.4785 124.736Z" fill="#39B54A"/>
<path d="M166.858 266.219C166.858 266.219 103.947 216.675 61.2598 142.231C61.2598 142.231 140.621 218.647 166.858 266.219Z" fill="url(#paint19_linear)"/>
<path d="M166.858 266.219C166.858 266.219 103.947 216.675 61.2598 142.231C61.2598 142.231 122.461 220.621 166.858 266.219Z" fill="#39B54A"/>
<path d="M572.381 566.262C572.381 566.262 582.844 516.865 549.897 442.538C549.897 442.538 558.871 487.036 559.91 512.078C561.021 541.938 570.723 563.58 572.381 566.262Z" fill="url(#paint20_linear)"/>
<path d="M572.382 566.261C572.382 566.261 583.71 520.615 550.235 443.011C550.235 443.011 564.201 489.035 566.282 518.666C567.464 537.894 571.49 558.582 572.382 566.261Z" fill="#39B54A"/>
<path d="M549.84 553.595C549.84 553.595 551.501 449.331 493.726 371.566C493.726 371.566 523.317 414.944 528.341 466.748C533.337 518.867 543.037 544.751 549.84 553.595Z" fill="url(#paint21_linear)"/>
<path d="M550.046 554.12C550.046 554.12 551.707 449.856 493.933 372.091C493.933 372.091 518.504 402.29 534.085 473.281C542.902 513.902 546.184 532.307 550.046 554.12Z" fill="#39B54A"/>
<path d="M530.163 543.591C530.163 543.591 524.488 412.516 450.163 350.483C450.163 350.483 488.981 388.424 502.284 459.399C515.615 530.061 530.163 543.591 530.163 543.591Z" fill="url(#paint22_linear)"/>
<path d="M530.317 543.986C530.317 543.986 524.435 412.385 450.11 350.353C450.11 350.353 489.922 388.509 507.632 458.362C521.589 513.63 530.317 543.986 530.317 543.986Z" fill="#39B54A"/>
<path d="M498.157 532.669C498.157 532.669 493.633 425.378 437.246 355.4C437.246 355.4 466.58 417.814 476.567 471.458C482.94 505.464 498.157 532.669 498.157 532.669Z" fill="url(#paint23_linear)"/>
<path d="M498.442 533.011C498.442 533.011 493.763 425.327 437.325 355.217C437.325 355.217 465.964 400.029 482.572 470.163C488.887 497.072 498.442 533.011 498.442 533.011Z" fill="#39B54A"/>
<path d="M379.201 322.124C379.201 322.124 457.373 396.28 475.584 516.833C475.584 516.833 449.201 479.316 433.486 424.586C417.691 370.039 379.201 322.124 379.201 322.124Z" fill="url(#paint24_linear)"/>
<path d="M379.201 322.124C379.201 322.124 457.71 396.754 475.79 517.358C475.79 517.358 458.866 471.131 441.641 426.84C420.886 373.936 379.201 322.124 379.201 322.124Z" fill="#39B54A"/>
<path d="M355.099 319.764C355.099 319.764 424.357 379.694 447.76 503.057C447.76 503.057 422.22 468.845 412.219 432.929C402.088 397.065 390.329 361.687 355.099 319.764Z" fill="url(#paint25_linear)"/>
<path d="M355.099 319.764C355.099 319.764 424.357 379.694 447.76 503.057C447.76 503.057 429.589 467.166 419.406 431.17C409.457 395.386 390.329 361.687 355.099 319.764Z" fill="#39B54A"/>
<path d="M332.834 308.958C332.834 308.958 416.545 396.846 415.576 483.57C415.576 483.57 396.291 453.72 382.402 404.03C368.513 354.341 332.834 308.958 332.834 308.958Z" fill="url(#paint26_linear)"/>
<path d="M333.039 309.483C333.039 309.483 416.75 397.372 415.781 484.095C415.781 484.095 409.407 462.056 394.396 415.685C374.409 353.542 333.039 309.483 333.039 309.483Z" fill="#39B54A"/>
<path d="M320.2 291.041C320.2 291.041 378.035 379.386 383.793 466.652C383.793 466.652 366.025 441.055 354.756 391.094C343.384 340.871 328.738 306.627 320.2 291.041Z" fill="url(#paint27_linear)"/>
<path d="M320.354 291.435C320.354 291.435 378.19 379.78 383.947 467.046C383.947 467.046 373.847 434.35 361.413 390.301C347.495 340.925 328.892 307.021 320.354 291.435Z" fill="#39B54A"/>
<path d="M292.701 256.083C292.701 256.083 360.177 347.765 354.857 446.951C354.857 446.951 342.585 425.71 337.867 390.903C333.149 356.096 317.607 302.965 292.701 256.083Z" fill="url(#paint28_linear)"/>
<path d="M292.776 256.659C292.776 256.659 360.252 348.342 354.932 447.527C354.932 447.527 348.54 424.284 344.267 389.453C338.304 341.047 317.814 303.49 292.776 256.659Z" fill="#39B54A"/>
<path d="M254.745 218.41C254.745 218.41 337.408 329.886 333.896 432.906C333.896 432.906 317.303 399.88 313.632 373.145C310.142 346.49 293.963 282.854 254.745 218.41Z" fill="url(#paint29_linear)"/>
<path d="M254.95 218.935C254.95 218.935 337.614 330.411 334.101 433.432C334.101 433.432 324.804 398.149 321.132 371.414C317.643 344.759 294.117 283.248 254.95 218.935Z" fill="#39B54A"/>
<path d="M221.008 207.711C221.008 207.711 303.157 286.215 310.316 414.891C310.316 414.891 302.953 411.568 288.875 354.833C274.797 298.098 262.372 264.497 221.008 207.711Z" fill="url(#paint30_linear)"/>
<path d="M221.008 207.711C221.008 207.711 303.232 286.791 310.39 415.467C310.39 415.467 308.804 409.879 294.726 353.144C280.648 296.409 259.719 253.874 221.008 207.711Z" fill="#39B54A"/>
<path d="M217.449 219.105C217.449 219.105 290.801 336.961 289.48 393.829C289.48 393.829 272.784 372.507 259.708 326.436C246.633 280.366 242.266 267.689 217.449 219.105Z" fill="url(#paint31_linear)"/>
<path d="M217.45 219.105C217.45 219.105 290.801 336.961 289.481 393.829C289.481 393.829 282.776 378.282 269.886 335.774C255.588 288.517 242.267 267.689 217.45 219.105Z" fill="#39B54A"/>
<path d="M172.67 179.868C172.67 179.868 267.997 316.672 272.696 381.934C272.696 381.934 246.281 333.522 232.177 292.551C218.072 251.58 172.67 179.868 172.67 179.868Z" fill="url(#paint32_linear)"/>
<path d="M172.67 179.868C172.67 179.868 267.997 316.672 272.696 381.934C272.696 381.934 260.636 348.492 240.68 301.485C223.688 261.647 172.67 179.868 172.67 179.868Z" fill="#39B54A"/>
<path d="M131.587 143.876C131.587 143.876 216.914 264.456 228.232 338.483C228.232 338.483 215.271 318.573 197.346 277.132C179.422 235.69 158.496 188.913 131.587 143.876Z" fill="url(#paint33_linear)"/>
<path d="M131.587 143.876C131.587 143.876 216.914 264.456 228.232 338.483C228.232 338.483 220.02 317.165 202.175 275.54C184.331 233.916 158.496 188.913 131.587 143.876Z" fill="#39B54A"/>
<path d="M161.27 181.311C161.27 181.311 222.253 252.97 252.829 364.885C252.829 364.885 235.64 334.97 219.446 301.03C203.07 267.009 197.688 229.736 161.27 181.311Z" fill="url(#paint34_linear)"/>
<path d="M161.27 181.311C161.27 181.311 222.253 252.97 252.829 364.885C252.829 364.885 240.958 330.763 224.712 296.692C208.336 262.671 197.688 229.736 161.27 181.311Z" fill="#39B54A"/>
<path d="M622.877 592.653C622.877 592.653 305.846 480.72 166.671 266.899C164.83 264.137 165.445 262.229 163.736 259.416C163.736 259.416 295.319 468.945 635.041 582.731L622.877 592.653Z" fill="url(#paint35_linear)"/>
</g>
<defs>
<linearGradient id="paint0_linear" x1="500.534" y1="635.635" x2="533.892" y2="550.404" gradientUnits="userSpaceOnUse">
<stop stop-color="#54B948"/>
<stop offset="0.3764" stop-color="#00A651"/>
<stop offset="1" stop-color="#005826"/>
</linearGradient>
<linearGradient id="paint1_linear" x1="437.618" y1="644.199" x2="482.162" y2="530.389" gradientUnits="userSpaceOnUse">
<stop stop-color="#54B948"/>
<stop offset="0.3764" stop-color="#00A651"/>
<stop offset="1" stop-color="#005826"/>
</linearGradient>
<linearGradient id="paint2_linear" x1="406.5" y1="607.791" x2="442.82" y2="514.992" gradientUnits="userSpaceOnUse">
<stop stop-color="#54B948"/>
<stop offset="0.3764" stop-color="#00A651"/>
<stop offset="1" stop-color="#005826"/>
</linearGradient>
<linearGradient id="paint3_linear" x1="387.412" y1="588.205" x2="420.478" y2="503.723" gradientUnits="userSpaceOnUse">
<stop stop-color="#54B948"/>
<stop offset="0.3764" stop-color="#00A651"/>
<stop offset="1" stop-color="#005826"/>
</linearGradient>
<linearGradient id="paint4_linear" x1="351.491" y1="564.555" x2="383.014" y2="484.012" gradientUnits="userSpaceOnUse">
<stop stop-color="#54B948"/>
<stop offset="0.3764" stop-color="#00A651"/>
<stop offset="1" stop-color="#005826"/>
</linearGradient>
<linearGradient id="paint5_linear" x1="329.665" y1="543.898" x2="358.447" y2="470.359" gradientUnits="userSpaceOnUse">
<stop stop-color="#54B948"/>
<stop offset="0.3764" stop-color="#00A651"/>
<stop offset="1" stop-color="#005826"/>
</linearGradient>
<linearGradient id="paint6_linear" x1="306.805" y1="518.798" x2="331.99" y2="454.451" gradientUnits="userSpaceOnUse">
<stop stop-color="#54B948"/>
<stop offset="0.3764" stop-color="#00A651"/>
<stop offset="1" stop-color="#005826"/>
</linearGradient>
<linearGradient id="paint7_linear" x1="283.131" y1="498.679" x2="306.516" y2="438.928" gradientUnits="userSpaceOnUse">
<stop stop-color="#54B948"/>
<stop offset="0.3764" stop-color="#00A651"/>
<stop offset="1" stop-color="#005826"/>
</linearGradient>
<linearGradient id="paint8_linear" x1="242.85" y1="470.044" x2="264.951" y2="413.574" gradientUnits="userSpaceOnUse">
<stop stop-color="#54B948"/>
<stop offset="0.3764" stop-color="#00A651"/>
<stop offset="1" stop-color="#005826"/>
</linearGradient>
<linearGradient id="paint9_linear" x1="208.844" y1="443.432" x2="229.686" y2="390.181" gradientUnits="userSpaceOnUse">
<stop stop-color="#54B948"/>
<stop offset="0.3764" stop-color="#00A651"/>
<stop offset="1" stop-color="#005826"/>
</linearGradient>
<linearGradient id="paint10_linear" x1="194.757" y1="409.135" x2="208.447" y2="374.157" gradientUnits="userSpaceOnUse">
<stop stop-color="#54B948"/>
<stop offset="0.3764" stop-color="#00A651"/>
<stop offset="1" stop-color="#005826"/>
</linearGradient>
<linearGradient id="paint11_linear" x1="197.639" y1="387.585" x2="206.615" y2="364.65" gradientUnits="userSpaceOnUse">
<stop stop-color="#54B948"/>
<stop offset="0.3764" stop-color="#00A651"/>
<stop offset="1" stop-color="#005826"/>
</linearGradient>
<linearGradient id="paint12_linear" x1="161.054" y1="354.175" x2="165.968" y2="341.622" gradientUnits="userSpaceOnUse">
<stop stop-color="#54B948"/>
<stop offset="0.3764" stop-color="#00A651"/>
<stop offset="1" stop-color="#005826"/>
</linearGradient>
<linearGradient id="paint13_linear" x1="152.716" y1="335.413" x2="156.856" y2="324.835" gradientUnits="userSpaceOnUse">
<stop stop-color="#54B948"/>
<stop offset="0.3764" stop-color="#00A651"/>
<stop offset="1" stop-color="#005826"/>
</linearGradient>
<linearGradient id="paint14_linear" x1="139.258" y1="309.442" x2="147.167" y2="289.233" gradientUnits="userSpaceOnUse">
<stop stop-color="#54B948"/>
<stop offset="0.3764" stop-color="#00A651"/>
<stop offset="1" stop-color="#005826"/>
</linearGradient>
<linearGradient id="paint15_linear" x1="117.023" y1="274.904" x2="126.614" y2="250.397" gradientUnits="userSpaceOnUse">
<stop stop-color="#54B948"/>
<stop offset="0.3764" stop-color="#00A651"/>
<stop offset="1" stop-color="#005826"/>
</linearGradient>
<linearGradient id="paint16_linear" x1="105.421" y1="251.15" x2="121.684" y2="209.599" gradientUnits="userSpaceOnUse">
<stop stop-color="#54B948"/>
<stop offset="0.3764" stop-color="#00A651"/>
<stop offset="1" stop-color="#005826"/>
</linearGradient>
<linearGradient id="paint17_linear" x1="171.321" y1="218.834" x2="146.202" y2="226.683" gradientUnits="userSpaceOnUse">
<stop stop-color="#54B948"/>
<stop offset="0.3764" stop-color="#00A651"/>
<stop offset="1" stop-color="#005826"/>
</linearGradient>
<linearGradient id="paint18_linear" x1="154.299" y1="190.748" x2="101.307" y2="199.786" gradientUnits="userSpaceOnUse">
<stop stop-color="#54B948"/>
<stop offset="0.3764" stop-color="#00A651"/>
<stop offset="1" stop-color="#005826"/>
</linearGradient>
<linearGradient id="paint19_linear" x1="100.053" y1="240.002" x2="128.097" y2="168.349" gradientUnits="userSpaceOnUse">
<stop stop-color="#54B948"/>
<stop offset="0.3764" stop-color="#00A651"/>
<stop offset="1" stop-color="#005826"/>
</linearGradient>
<linearGradient id="paint20_linear" x1="586.091" y1="466.038" x2="536.286" y2="542.827" gradientUnits="userSpaceOnUse">
<stop stop-color="#54B948"/>
<stop offset="0.3764" stop-color="#00A651"/>
<stop offset="1" stop-color="#005826"/>
</linearGradient>
<linearGradient id="paint21_linear" x1="555.043" y1="411.314" x2="488.537" y2="513.851" gradientUnits="userSpaceOnUse">
<stop stop-color="#54B948"/>
<stop offset="0.3764" stop-color="#00A651"/>
<stop offset="1" stop-color="#005826"/>
</linearGradient>
<linearGradient id="paint22_linear" x1="521.469" y1="408.347" x2="458.72" y2="485.759" gradientUnits="userSpaceOnUse">
<stop stop-color="#54B948"/>
<stop offset="0.3764" stop-color="#00A651"/>
<stop offset="1" stop-color="#005826"/>
</linearGradient>
<linearGradient id="paint23_linear" x1="498.225" y1="410.251" x2="437.408" y2="477.574" gradientUnits="userSpaceOnUse">
<stop stop-color="#54B948"/>
<stop offset="0.3764" stop-color="#00A651"/>
<stop offset="1" stop-color="#005826"/>
</linearGradient>
<linearGradient id="paint24_linear" x1="455.293" y1="386.508" x2="399.443" y2="452.55" gradientUnits="userSpaceOnUse">
<stop stop-color="#54B948"/>
<stop offset="0.3764" stop-color="#00A651"/>
<stop offset="1" stop-color="#005826"/>
</linearGradient>
<linearGradient id="paint25_linear" x1="427.116" y1="381.419" x2="375.751" y2="441.397" gradientUnits="userSpaceOnUse">
<stop stop-color="#54B948"/>
<stop offset="0.3764" stop-color="#00A651"/>
<stop offset="1" stop-color="#005826"/>
</linearGradient>
<linearGradient id="paint26_linear" x1="398.037" y1="371.327" x2="350.298" y2="421.282" gradientUnits="userSpaceOnUse">
<stop stop-color="#54B948"/>
<stop offset="0.3764" stop-color="#00A651"/>
<stop offset="1" stop-color="#005826"/>
</linearGradient>
<linearGradient id="paint27_linear" x1="376.582" y1="358.122" x2="327.44" y2="399.374" gradientUnits="userSpaceOnUse">
<stop stop-color="#54B948"/>
<stop offset="0.3764" stop-color="#00A651"/>
<stop offset="1" stop-color="#005826"/>
</linearGradient>
<linearGradient id="paint28_linear" x1="348.377" y1="333.851" x2="299.087" y2="369.168" gradientUnits="userSpaceOnUse">
<stop stop-color="#54B948"/>
<stop offset="0.3764" stop-color="#00A651"/>
<stop offset="1" stop-color="#005826"/>
</linearGradient>
<linearGradient id="paint29_linear" x1="317.99" y1="309.306" x2="270.991" y2="341.884" gradientUnits="userSpaceOnUse">
<stop stop-color="#54B948"/>
<stop offset="0.3764" stop-color="#00A651"/>
<stop offset="1" stop-color="#005826"/>
</linearGradient>
<linearGradient id="paint30_linear" x1="284.817" y1="299.784" x2="252.53" y2="318.975" gradientUnits="userSpaceOnUse">
<stop stop-color="#54B948"/>
<stop offset="0.3764" stop-color="#00A651"/>
<stop offset="1" stop-color="#005826"/>
</linearGradient>
<linearGradient id="paint31_linear" x1="263.975" y1="300.544" x2="242.551" y2="312.689" gradientUnits="userSpaceOnUse">
<stop stop-color="#54B948"/>
<stop offset="0.3764" stop-color="#00A651"/>
<stop offset="1" stop-color="#005826"/>
</linearGradient>
<linearGradient id="paint32_linear" x1="231.98" y1="276.079" x2="220.057" y2="282.369" gradientUnits="userSpaceOnUse">
<stop stop-color="#54B948"/>
<stop offset="0.3764" stop-color="#00A651"/>
<stop offset="1" stop-color="#005826"/>
</linearGradient>
<linearGradient id="paint33_linear" x1="188.962" y1="236.722" x2="178.776" y2="241.748" gradientUnits="userSpaceOnUse">
<stop stop-color="#54B948"/>
<stop offset="0.3764" stop-color="#00A651"/>
<stop offset="1" stop-color="#005826"/>
</linearGradient>
<linearGradient id="paint34_linear" x1="203.703" y1="256.534" x2="245.159" y2="343.429" gradientUnits="userSpaceOnUse">
<stop stop-color="#54B948"/>
<stop offset="0.3764" stop-color="#00A651"/>
<stop offset="1" stop-color="#005826"/>
</linearGradient>
<linearGradient id="paint35_linear" x1="327.62" y1="398.347" x2="697.254" y2="558.345" gradientUnits="userSpaceOnUse">
<stop stop-color="#54B948"/>
<stop offset="0.3764" stop-color="#00A651"/>
<stop offset="1" stop-color="#005826"/>
</linearGradient>
</defs>
</svg>
