<svg width="539" height="613" viewBox="0 0 539 613" fill="none" xmlns="http://www.w3.org/2000/svg">
<g opacity="0.2">
<path d="M135.882 646.229C135.882 646.229 266.106 653.632 357.706 593.809C357.706 593.809 278.579 621.862 212.692 627.582C170.656 631.128 135.882 646.229 135.882 646.229Z" fill="url(#paint0_linear)"/>
<path d="M404.188 536.988C404.188 536.988 302.259 619.515 154.111 622.057C154.111 622.057 203.558 596.294 271.888 585.968C340.217 575.814 404.188 536.988 404.188 536.988Z" fill="url(#paint1_linear)"/>
<path d="M415.607 507.951C415.607 507.951 332.784 582.43 180.455 591.961C180.455 591.961 225.615 566.329 270.423 559.724C315.233 552.948 359.719 544.111 415.607 507.951Z" fill="url(#paint2_linear)"/>
<path d="M426.564 473.253C426.564 473.253 312.868 567.326 207.686 558.617C207.686 558.617 245.601 537.717 306.924 525.096C368.247 512.475 426.564 473.253 426.564 473.253Z" fill="url(#paint3_linear)"/>
<path d="M442.457 442.373C442.457 442.373 338.032 516.818 232.32 527.991C232.32 527.991 262.538 505.132 322.694 489.071C382.849 473.011 423.838 453.34 442.457 442.373Z" fill="url(#paint4_linear)"/>
<path d="M482.939 385.838C482.939 385.838 381.757 480.029 261.163 487.632C261.163 487.632 285.163 469.687 326.407 459.276C367.824 448.696 429.789 422.537 482.939 385.838Z" fill="url(#paint5_linear)"/>
<path d="M523.598 328.447C523.598 328.447 402.481 445.766 277.727 458.13C277.727 458.13 314.998 432.766 346.453 424.149C377.908 415.532 452.25 385.89 523.598 328.447Z" fill="url(#paint6_linear)"/>
<path d="M519.47 275.434C519.47 275.434 445.843 392.516 294.26 432.056C294.26 432.056 296.408 422.476 360.473 391.88C424.538 361.284 461.782 338.663 519.47 275.434Z" fill="url(#paint7_linear)"/>
<path d="M496.515 273.674C496.515 273.674 376.416 392.031 308.568 405.79C308.568 405.79 329.382 380.271 380.562 352.467C431.741 324.835 445.539 316.051 496.515 273.674Z" fill="url(#paint8_linear)"/>
<path d="M534.773 198.088C534.773 198.088 402.513 351.647 327.183 376.993C327.183 376.993 376.133 331.167 420.125 302.096C464.287 273.198 534.773 198.088 534.773 198.088Z" fill="url(#paint9_linear)"/>
<path d="M530.203 173.872C530.203 173.872 417.957 313.904 335.136 351.866C335.136 351.866 354.029 330.101 396.533 295.186C439.037 260.272 486.733 220.263 530.203 173.872Z" fill="url(#paint10_linear)"/>
<path d="M518.577 134.159C518.577 134.159 465.348 233.605 351.581 316.877C351.581 316.877 376.566 285.397 408.255 252.095C439.943 218.792 479.412 196.707 518.577 134.159Z" fill="url(#paint11_linear)"/>
<path d="M135.366 646.395C135.366 646.395 266.277 653.634 357.706 593.809C357.706 593.809 300.168 623.095 213.138 634.787C180.008 639.274 135.366 646.395 135.366 646.395Z" fill="#FABE28" fill-opacity="0.6"/>
<path d="M404.188 536.988C404.188 536.988 301.743 619.681 153.595 622.223C153.595 622.223 212.009 609.061 268.028 595.361C335.044 579.022 404.188 536.988 404.188 536.988Z" fill="#FABE28" fill-opacity="0.6"/>
<path d="M415.607 507.951C415.607 507.951 332.784 582.43 180.455 591.961C180.455 591.961 226.558 575.425 271.366 568.819C316.174 562.214 359.719 544.111 415.607 507.951Z" fill="#FABE28" fill-opacity="0.6"/>
<path d="M426.049 473.419C426.049 473.419 312.352 567.493 207.171 558.783C207.171 558.783 234.486 552.87 292.05 538.842C369.033 520.026 426.049 473.419 426.049 473.419Z" fill="#FABE28" fill-opacity="0.6"/>
<path d="M441.771 442.538C441.771 442.538 337.347 516.983 231.634 528.155C231.634 528.155 270.682 514.295 323.819 497.14C383.148 477.814 423.324 453.507 441.771 442.538Z" fill="#FABE28" fill-opacity="0.6"/>
<path d="M482.421 386.004C482.421 386.004 381.238 480.196 260.644 487.799C260.644 487.799 287.835 476.912 329.248 466.675C386.64 452.817 429.27 422.704 482.421 386.004Z" fill="#FABE28" fill-opacity="0.6"/>
<path d="M522.911 328.612C522.911 328.612 401.794 445.931 277.041 458.295C277.041 458.295 318.173 441.54 349.628 432.923C381.254 424.307 451.563 386.055 522.911 328.612Z" fill="#FABE28" fill-opacity="0.6"/>
<path d="M519.47 275.434C519.47 275.434 445.328 392.682 293.744 432.223C293.744 432.223 299.946 429.024 364.182 398.43C428.419 367.835 473.666 332.947 519.47 275.434Z" fill="#FABE28" fill-opacity="0.6"/>
<path d="M496.515 273.674C496.515 273.674 376.416 392.031 308.568 405.79C308.568 405.79 325.14 393.774 372.194 367.132C424.593 337.454 445.539 316.051 496.515 273.674Z" fill="#FABE28" fill-opacity="0.6"/>
<path d="M536.335 196.217C536.335 196.217 404.074 349.775 328.744 375.122C328.744 375.122 364.461 350.944 413.68 313.007C455.471 281 536.335 196.217 536.335 196.217Z" fill="#FABE28" fill-opacity="0.6"/>
<path d="M530.203 173.872C530.203 173.872 417.957 313.904 335.136 351.866C335.136 351.866 357.41 335.104 399.913 300.361C442.416 265.618 486.733 220.263 530.203 173.872Z" fill="#FABE28" fill-opacity="0.6"/>
<path d="M518.577 134.159C518.577 134.159 465.695 233.094 351.929 316.366C351.929 316.366 383.727 289.579 415.244 256.275C446.761 222.971 479.412 196.707 518.577 134.159Z" fill="#FABE28" fill-opacity="0.6"/>
<path d="M513.666 91.5959C513.666 91.5959 441.232 209.547 374.753 259.664C374.753 259.664 402.399 218.78 426.307 192.433C450.215 166.086 487.579 130.78 513.666 91.5959Z" fill="url(#paint12_linear)"/>
<path d="M513.666 91.5959C513.666 91.5959 441.232 209.547 374.753 259.664C374.753 259.664 407.105 228.768 431.394 198.31C453.43 170.574 487.579 130.78 513.666 91.5959Z" fill="#FABE28" fill-opacity="0.6"/>
<path d="M490.372 53.1445C490.372 53.1445 454.398 158.925 389.377 218.142C389.377 218.142 395.322 205.855 414.98 175.696C434.638 145.537 467.35 112.759 490.372 53.1445Z" fill="url(#paint13_linear)"/>
<path d="M490.372 53.1445C490.372 53.1445 454.398 158.925 389.377 218.142C389.377 218.142 403.741 203.877 423.399 173.719C443.057 143.56 467.35 112.759 490.372 53.1445Z" fill="#FABE28" fill-opacity="0.6"/>
<path d="M394.511 37.8369C394.511 37.8369 364.259 172.988 376.854 255.226C376.854 255.226 385.542 206.62 386.735 171.143C387.928 135.666 386.014 84.2166 394.511 37.8369Z" fill="url(#paint14_linear)"/>
<path d="M394.511 37.8369C394.511 37.8369 364.259 172.988 376.854 255.226C376.854 255.226 375.22 210.465 379.015 171.756C382.606 136.473 386.014 84.2166 394.511 37.8369Z" fill="#FABE28" fill-opacity="0.6"/>
<path d="M422.595 4.84351C422.595 4.84351 377.511 113.11 394.357 198.988C394.357 198.988 397.913 185.478 402.027 149.344C406.14 113.209 399.888 67.3755 422.595 4.84351Z" fill="url(#paint15_linear)"/>
<path d="M422.595 4.84351C422.595 4.84351 377.511 113.11 394.357 198.988C394.357 198.988 391.459 179.074 395.574 142.768C399.689 106.462 399.888 67.3755 422.595 4.84351Z" fill="#FABE28" fill-opacity="0.6"/>
<path d="M394.866 199.508C394.866 199.508 444.859 115.975 461.092 12.9224C461.092 12.9224 404.056 134.105 394.866 199.508Z" fill="url(#paint16_linear)"/>
<path d="M394.866 199.508C394.866 199.508 444.859 115.975 461.092 12.9224C461.092 12.9224 425.54 128.479 394.866 199.508Z" fill="#FABE28" fill-opacity="0.6"/>
<path d="M64.246 716.013C64.246 716.013 30.9604 664.437 36.1799 565.738C36.1799 565.738 45.2657 620.17 54.9358 649.063C66.6112 683.461 64.9674 712.248 64.246 716.013Z" fill="url(#paint17_linear)"/>
<path d="M64.2469 716.013C64.2469 716.013 31.6031 669.072 36.0029 566.422C36.0029 566.422 40.08 624.75 50.5538 659.308C57.5428 681.661 61.9329 706.904 64.2469 716.013Z" fill="#FABE28" fill-opacity="0.6"/>
<path d="M84.3614 691.858C84.3614 691.858 37.3004 574.149 69.2317 460.787C69.2317 460.787 54.415 522.879 71.1532 583.898C88.0595 645.262 88.256 678.866 84.3614 691.858Z" fill="url(#paint18_linear)"/>
<path d="M84.3549 692.544C84.3549 692.544 37.2939 574.834 69.2252 461.472C69.2252 461.472 54.3992 506.421 67.4592 593.807C75.0443 643.767 79.2905 666.094 84.3549 692.544Z" fill="#FABE28" fill-opacity="0.6"/>
<path d="M102.379 671.971C102.379 671.971 52.036 520.629 109.582 417.967C109.582 417.967 81.9279 477.88 97.569 564.262C113.042 650.299 102.379 671.971 102.379 671.971Z" fill="url(#paint19_linear)"/>
<path d="M102.375 672.484C102.375 672.484 52.038 520.456 109.584 417.794C109.584 417.794 80.8949 478.383 91.0439 565.399C99.1363 634.223 102.375 672.484 102.375 672.484Z" fill="#FABE28" fill-opacity="0.6"/>
<path d="M134 645.698C134 645.698 92.6541 521.87 126.382 417.954C126.382 417.954 120.105 501.557 132.003 566.817C139.498 608.205 134 645.698 134 645.698Z" fill="url(#paint20_linear)"/>
<path d="M133.824 646.209C133.824 646.209 92.4828 521.868 126.212 417.78C126.212 417.78 113.098 481.089 124.62 567.946C129.106 601.247 133.824 646.209 133.824 646.209Z" fill="#FABE28" fill-opacity="0.6"/>
<path d="M177.896 355.008C177.896 355.008 121.233 473.108 152.78 617.929C152.78 617.929 166.492 563.884 160.629 494.91C154.937 426.109 177.896 355.008 177.896 355.008Z" fill="url(#paint21_linear)"/>
<path d="M177.896 355.008C177.896 355.008 121.055 473.792 152.773 618.615C152.773 618.615 151.968 558.775 152.343 501.004C152.996 431.92 177.896 355.008 177.896 355.008Z" fill="#FABE28" fill-opacity="0.6"/>
<path d="M204.25 341.885C204.25 341.885 151.548 439.964 178.414 590.227C178.414 590.227 192.601 540.301 188.399 495.173C184.369 450.047 182.397 404.768 204.25 341.885Z" fill="url(#paint22_linear)"/>
<path d="M204.25 341.885C204.25 341.885 151.548 439.964 178.414 590.227C178.414 590.227 183.503 541.587 179.474 496.289C175.27 451.332 182.397 404.768 204.25 341.885Z" fill="#FABE28" fill-opacity="0.6"/>
<path d="M224.86 319.964C224.86 319.964 167.855 456.062 206.53 554.148C206.53 554.148 215.502 511.887 209.749 449.429C203.997 386.971 224.86 319.964 224.86 319.964Z" fill="url(#paint23_linear)"/>
<path d="M224.854 320.65C224.854 320.65 167.848 456.748 206.523 554.834C206.523 554.834 204.214 527.039 201.174 467.863C196.952 388.619 224.854 320.65 224.854 320.65Z" fill="#FABE28" fill-opacity="0.6"/>
<path d="M231.447 294.139C231.447 294.139 204.03 419.545 235.3 521.161C235.3 521.161 244.391 484.388 235.545 422.757C226.702 360.784 228.501 315.541 231.447 294.139Z" fill="url(#paint24_linear)"/>
<path d="M231.443 294.653C231.443 294.653 204.026 420.059 235.296 521.675C235.296 521.675 232.602 480.162 227.64 424.74C222.056 362.626 228.497 316.055 231.443 294.653Z" fill="#FABE28" fill-opacity="0.6"/>
<path d="M247.535 242.517C247.535 242.517 210.614 375.89 259.631 486.246C259.631 486.246 264.367 456.804 254.645 415.223C244.924 373.643 239.558 306.56 247.535 242.517Z" fill="url(#paint25_linear)"/>
<path d="M247.699 243.204C247.699 243.204 210.778 376.578 259.795 486.934C259.795 486.934 256.985 457.763 246.747 416.349C232.548 358.783 239.55 307.246 247.699 243.204Z" fill="#FABE28" fill-opacity="0.6"/>
<path d="M274.326 183.281C274.326 183.281 228.73 345.717 277.355 461.212C277.355 461.212 281.892 416.51 274.48 384.552C266.894 352.764 257.701 273.472 274.326 183.281Z" fill="url(#paint26_linear)"/>
<path d="M274.319 183.967C274.319 183.967 228.722 346.403 277.347 461.898C277.347 461.898 272.621 417.794 265.209 385.836C257.623 354.048 257.695 273.986 274.319 183.967Z" fill="#FABE28" fill-opacity="0.6"/>
<path d="M308.01 156.512C308.01 156.512 248.712 281.273 296.332 430.533C296.332 430.533 303.255 423.569 294.665 353.027C286.074 282.484 285.629 238.934 308.01 156.512Z" fill="url(#paint27_linear)"/>
<path d="M308.01 156.512C308.01 156.512 248.877 281.961 296.497 431.22C296.497 431.22 295.877 424.185 287.287 353.643C278.696 283.1 284.039 225.718 308.01 156.512Z" fill="#FABE28" fill-opacity="0.6"/>
<path d="M316.99 167.912C316.99 167.912 284.735 333.56 310.874 397.582C310.874 397.582 320.601 366.13 315.492 308.135C310.383 250.14 309.851 233.848 316.99 167.912Z" fill="url(#paint28_linear)"/>
<path d="M316.99 167.912C316.99 167.912 284.736 333.56 310.875 397.583C310.875 397.583 311.755 377.018 307.979 323.15C303.745 263.278 309.852 233.848 316.99 167.912Z" fill="#FABE28" fill-opacity="0.6"/>
<path d="M350.853 103.942C350.853 103.942 301.846 300.634 324.784 376.798C324.784 376.798 333.813 310.365 332.083 257.717C330.352 205.069 350.853 103.942 350.853 103.942Z" fill="url(#paint29_linear)"/>
<path d="M350.853 103.942C350.853 103.942 301.846 300.634 324.784 376.798C324.784 376.798 323.993 333.588 326.294 271.549C328.335 218.937 350.853 103.942 350.853 103.942Z" fill="#FABE28" fill-opacity="0.6"/>
<path d="M381.924 45.2612C381.924 45.2612 337.247 219.192 356.464 308.18C356.464 308.18 362.56 279.95 364.965 225.112C367.369 170.274 370.872 108.075 381.924 45.2612Z" fill="url(#paint30_linear)"/>
<path d="M381.924 45.2612C381.924 45.2612 337.247 219.192 356.464 308.18C356.464 308.18 356.555 280.407 358.79 225.396C361.025 170.386 370.872 108.075 381.924 45.2612Z" fill="#FABE28" fill-opacity="0.6"/>
<path d="M364.429 100.642C364.429 100.642 326.207 208.459 339.966 348.826C339.966 348.826 346.529 307.4 350.218 261.832C354.079 216.094 344.044 171.425 364.429 100.642Z" fill="url(#paint31_linear)"/>
<path d="M364.429 100.642C364.429 100.642 326.207 208.459 339.966 348.826C339.966 348.826 338.666 304.925 342.356 259.186C346.218 213.448 344.044 171.425 364.429 100.642Z" fill="#FABE28" fill-opacity="0.6"/>
<path d="M18.3255 767.867C18.3255 767.867 329.932 503.369 395.375 200.198C396.27 196.263 394.745 194.363 395.468 190.427C395.468 190.427 336.788 485.433 0.209699 761.867L18.3255 767.867Z" fill="url(#paint32_linear)"/>
</g>
<defs>
<linearGradient id="paint0_linear" x1="283.853" y1="660.797" x2="209.693" y2="579.162" gradientUnits="userSpaceOnUse">
<stop stop-color="#54B948"/>
<stop offset="0.3764" stop-color="#00A651"/>
<stop offset="1" stop-color="#005826"/>
</linearGradient>
<linearGradient id="paint1_linear" x1="314.408" y1="618.369" x2="243.706" y2="540.542" gradientUnits="userSpaceOnUse">
<stop stop-color="#54B948"/>
<stop offset="0.3764" stop-color="#00A651"/>
<stop offset="1" stop-color="#005826"/>
</linearGradient>
<linearGradient id="paint2_linear" x1="330.248" y1="585.451" x2="265.694" y2="514.391" gradientUnits="userSpaceOnUse">
<stop stop-color="#54B948"/>
<stop offset="0.3764" stop-color="#00A651"/>
<stop offset="1" stop-color="#005826"/>
</linearGradient>
<linearGradient id="paint3_linear" x1="345.339" y1="547.036" x2="288.854" y2="484.858" gradientUnits="userSpaceOnUse">
<stop stop-color="#54B948"/>
<stop offset="0.3764" stop-color="#00A651"/>
<stop offset="1" stop-color="#005826"/>
</linearGradient>
<linearGradient id="paint4_linear" x1="363.513" y1="513.926" x2="311.063" y2="456.19" gradientUnits="userSpaceOnUse">
<stop stop-color="#54B948"/>
<stop offset="0.3764" stop-color="#00A651"/>
<stop offset="1" stop-color="#005826"/>
</linearGradient>
<linearGradient id="paint5_linear" x1="396.863" y1="463.949" x2="347.292" y2="409.383" gradientUnits="userSpaceOnUse">
<stop stop-color="#54B948"/>
<stop offset="0.3764" stop-color="#00A651"/>
<stop offset="1" stop-color="#005826"/>
</linearGradient>
<linearGradient id="paint6_linear" x1="423.957" y1="418.988" x2="377.212" y2="367.532" gradientUnits="userSpaceOnUse">
<stop stop-color="#54B948"/>
<stop offset="0.3764" stop-color="#00A651"/>
<stop offset="1" stop-color="#005826"/>
</linearGradient>
<linearGradient id="paint7_linear" x1="425.098" y1="373.928" x2="394.394" y2="340.129" gradientUnits="userSpaceOnUse">
<stop stop-color="#54B948"/>
<stop offset="0.3764" stop-color="#00A651"/>
<stop offset="1" stop-color="#005826"/>
</linearGradient>
<linearGradient id="paint8_linear" x1="412.489" y1="350.698" x2="392.356" y2="328.536" gradientUnits="userSpaceOnUse">
<stop stop-color="#54B948"/>
<stop offset="0.3764" stop-color="#00A651"/>
<stop offset="1" stop-color="#005826"/>
</linearGradient>
<linearGradient id="paint9_linear" x1="439.567" y1="296.899" x2="428.548" y2="284.768" gradientUnits="userSpaceOnUse">
<stop stop-color="#54B948"/>
<stop offset="0.3764" stop-color="#00A651"/>
<stop offset="1" stop-color="#005826"/>
</linearGradient>
<linearGradient id="paint10_linear" x1="440.911" y1="271.974" x2="431.625" y2="261.753" gradientUnits="userSpaceOnUse">
<stop stop-color="#54B948"/>
<stop offset="0.3764" stop-color="#00A651"/>
<stop offset="1" stop-color="#005826"/>
</linearGradient>
<linearGradient id="paint11_linear" x1="444.945" y1="236.644" x2="427.205" y2="217.116" gradientUnits="userSpaceOnUse">
<stop stop-color="#54B948"/>
<stop offset="0.3764" stop-color="#00A651"/>
<stop offset="1" stop-color="#005826"/>
</linearGradient>
<linearGradient id="paint12_linear" x1="455.236" y1="187.78" x2="433.724" y2="164.1" gradientUnits="userSpaceOnUse">
<stop stop-color="#54B948"/>
<stop offset="0.3764" stop-color="#00A651"/>
<stop offset="1" stop-color="#005826"/>
</linearGradient>
<linearGradient id="paint13_linear" x1="458.124" y1="155.772" x2="421.65" y2="115.622" gradientUnits="userSpaceOnUse">
<stop stop-color="#54B948"/>
<stop offset="0.3764" stop-color="#00A651"/>
<stop offset="1" stop-color="#005826"/>
</linearGradient>
<linearGradient id="paint14_linear" x1="369.268" y1="147.619" x2="401.2" y2="145.651" gradientUnits="userSpaceOnUse">
<stop stop-color="#54B948"/>
<stop offset="0.3764" stop-color="#00A651"/>
<stop offset="1" stop-color="#005826"/>
</linearGradient>
<linearGradient id="paint15_linear" x1="376.432" y1="108.342" x2="440.54" y2="95.6484" gradientUnits="userSpaceOnUse">
<stop stop-color="#54B948"/>
<stop offset="0.3764" stop-color="#00A651"/>
<stop offset="1" stop-color="#005826"/>
</linearGradient>
<linearGradient id="paint16_linear" x1="459.389" y1="140.784" x2="396.49" y2="71.5471" gradientUnits="userSpaceOnUse">
<stop stop-color="#54B948"/>
<stop offset="0.3764" stop-color="#00A651"/>
<stop offset="1" stop-color="#005826"/>
</linearGradient>
<linearGradient id="paint17_linear" x1="5.25002" y1="608.112" x2="95.0918" y2="673.755" gradientUnits="userSpaceOnUse">
<stop stop-color="#54B948"/>
<stop offset="0.3764" stop-color="#00A651"/>
<stop offset="1" stop-color="#005826"/>
</linearGradient>
<linearGradient id="paint18_linear" x1="16.8054" y1="532.501" x2="136.772" y2="620.154" gradientUnits="userSpaceOnUse">
<stop stop-color="#54B948"/>
<stop offset="0.3764" stop-color="#00A651"/>
<stop offset="1" stop-color="#005826"/>
</linearGradient>
<linearGradient id="paint19_linear" x1="53.6586" y1="514.586" x2="158.473" y2="575.328" gradientUnits="userSpaceOnUse">
<stop stop-color="#54B948"/>
<stop offset="0.3764" stop-color="#00A651"/>
<stop offset="1" stop-color="#005826"/>
</linearGradient>
<linearGradient id="paint20_linear" x1="80.8835" y1="506.678" x2="179.132" y2="556.798" gradientUnits="userSpaceOnUse">
<stop stop-color="#54B948"/>
<stop offset="0.3764" stop-color="#00A651"/>
<stop offset="1" stop-color="#005826"/>
</linearGradient>
<linearGradient id="paint21_linear" x1="119.362" y1="461.107" x2="211.413" y2="511.923" gradientUnits="userSpaceOnUse">
<stop stop-color="#54B948"/>
<stop offset="0.3764" stop-color="#00A651"/>
<stop offset="1" stop-color="#005826"/>
</linearGradient>
<linearGradient id="paint22_linear" x1="149.161" y1="443.118" x2="233.49" y2="488.991" gradientUnits="userSpaceOnUse">
<stop stop-color="#54B948"/>
<stop offset="0.3764" stop-color="#00A651"/>
<stop offset="1" stop-color="#005826"/>
</linearGradient>
<linearGradient id="paint23_linear" x1="177.821" y1="419.057" x2="253.689" y2="455.115" gradientUnits="userSpaceOnUse">
<stop stop-color="#54B948"/>
<stop offset="0.3764" stop-color="#00A651"/>
<stop offset="1" stop-color="#005826"/>
</linearGradient>
<linearGradient id="paint24_linear" x1="196.468" y1="394.761" x2="270.159" y2="420.326" gradientUnits="userSpaceOnUse">
<stop stop-color="#54B948"/>
<stop offset="0.3764" stop-color="#00A651"/>
<stop offset="1" stop-color="#005826"/>
</linearGradient>
<linearGradient id="paint25_linear" x1="217.989" y1="354.974" x2="289.278" y2="373.732" gradientUnits="userSpaceOnUse">
<stop stop-color="#54B948"/>
<stop offset="0.3764" stop-color="#00A651"/>
<stop offset="1" stop-color="#005826"/>
</linearGradient>
<linearGradient id="paint26_linear" x1="241.87" y1="313.927" x2="309.37" y2="330.569" gradientUnits="userSpaceOnUse">
<stop stop-color="#54B948"/>
<stop offset="0.3764" stop-color="#00A651"/>
<stop offset="1" stop-color="#005826"/>
</linearGradient>
<linearGradient id="paint27_linear" x1="275.424" y1="288.74" x2="320.411" y2="296.55" gradientUnits="userSpaceOnUse">
<stop stop-color="#54B948"/>
<stop offset="0.3764" stop-color="#00A651"/>
<stop offset="1" stop-color="#005826"/>
</linearGradient>
<linearGradient id="paint28_linear" x1="299.427" y1="280.573" x2="329.024" y2="285.087" gradientUnits="userSpaceOnUse">
<stop stop-color="#54B948"/>
<stop offset="0.3764" stop-color="#00A651"/>
<stop offset="1" stop-color="#005826"/>
</linearGradient>
<linearGradient id="paint29_linear" x1="325.169" y1="238.921" x2="341.437" y2="240.901" gradientUnits="userSpaceOnUse">
<stop stop-color="#54B948"/>
<stop offset="0.3764" stop-color="#00A651"/>
<stop offset="1" stop-color="#005826"/>
</linearGradient>
<linearGradient id="paint30_linear" x1="356.98" y1="175.579" x2="370.728" y2="176.875" gradientUnits="userSpaceOnUse">
<stop stop-color="#54B948"/>
<stop offset="0.3764" stop-color="#00A651"/>
<stop offset="1" stop-color="#005826"/>
</linearGradient>
<linearGradient id="paint31_linear" x1="348.821" y1="204.47" x2="339.381" y2="321.132" gradientUnits="userSpaceOnUse">
<stop stop-color="#54B948"/>
<stop offset="0.3764" stop-color="#00A651"/>
<stop offset="1" stop-color="#005826"/>
</linearGradient>
<linearGradient id="paint32_linear" x1="269.511" y1="419.238" x2="-81.021" y2="761.123" gradientUnits="userSpaceOnUse">
<stop stop-color="#54B948"/>
<stop offset="0.3764" stop-color="#00A651"/>
<stop offset="1" stop-color="#005826"/>
</linearGradient>
</defs>
</svg>
