<svg width="743" height="684" viewBox="0 0 743 684" fill="none" xmlns="http://www.w3.org/2000/svg">
<g opacity="0.2">
<path d="M639.466 685.484C639.466 685.484 534.213 756.186 416.747 748.839C416.747 748.839 480.455 750.37 536.776 721.096C593.042 691.66 625.907 684.477 639.466 685.484Z" fill="url(#paint0_linear)"/>
<path d="M613.433 673.869C613.433 673.869 468.199 739.868 360.104 693.489C360.104 693.489 422.678 714.596 506.836 689.988C590.887 665.596 613.433 673.869 613.433 673.869Z" fill="url(#paint1_linear)"/>
<path d="M576.074 653.972C576.074 653.972 454.697 701.727 348.983 673.548C348.983 673.548 432.915 675.451 497.286 660.28C538.323 650.502 576.074 653.972 576.074 653.972Z" fill="url(#paint2_linear)"/>
<path d="M287.062 634.113C287.062 634.113 409.687 680.626 551.2 636.712C551.2 636.712 496.177 627.705 428.044 639.265C359.967 650.987 287.062 634.113 287.062 634.113Z" fill="url(#paint3_linear)"/>
<path d="M267.137 610.103C267.137 610.103 369.097 654.946 516.766 616.364C516.766 616.364 465.856 606.14 421.23 613.878C376.548 621.454 331.53 626.972 267.137 610.103Z" fill="url(#paint4_linear)"/>
<path d="M245.878 580.572C245.878 580.572 383.291 634.372 480.473 593.208C480.473 593.208 437.925 585.213 375.73 592.401C313.536 599.59 245.878 580.572 245.878 580.572Z" fill="url(#paint5_linear)"/>
<path d="M221.126 556.21C221.126 556.21 343.594 594.266 447.498 571.821C447.498 571.821 411.647 559.558 349.486 563.115C287.325 566.671 242.241 560.805 221.126 556.21Z" fill="url(#paint6_linear)"/>
<path d="M164.995 515.169C164.995 515.169 290.558 572.996 407.481 542.506C407.481 542.506 379.074 532.965 336.643 535.974C293.994 538.876 226.956 533.407 164.995 515.169Z" fill="url(#paint7_linear)"/>
<path d="M108.43 473.372C108.43 473.372 260.16 546.932 382.523 519.663C382.523 519.663 339.189 507.227 306.617 508.878C274.045 510.529 194.162 505.622 108.43 473.372Z" fill="url(#paint8_linear)"/>
<path d="M95.7725 421.726C95.7725 421.726 202.319 509.912 358.665 500.067C358.665 500.067 353.629 491.639 283.21 482.612C212.79 473.584 170.339 463.745 95.7725 421.726Z" fill="url(#paint9_linear)"/>
<path d="M117.025 412.876C117.025 412.876 268.112 487.741 336.861 479.592C336.861 479.592 309.111 461.862 251.802 451.458C194.549 441.216 178.696 437.187 117.025 412.876Z" fill="url(#paint10_linear)"/>
<path d="M57.0488 353.045C57.0488 353.045 230.696 457.542 310.174 458.061C310.174 458.061 249.348 429.841 198.472 415.984C147.488 402.345 57.0488 353.045 57.0488 353.045Z" fill="url(#paint11_linear)"/>
<path d="M53.8164 328.614C53.8164 328.614 204.223 426.523 294.762 436.681C294.762 436.681 270.01 421.916 218.719 402.044C167.428 382.172 109.614 359.085 53.8164 328.614Z" fill="url(#paint12_linear)"/>
<path d="M52.4414 287.258C52.4414 287.258 134.099 365.07 268.2 408.59C268.2 408.59 234.624 386.502 194.111 364.779C153.597 343.056 109.202 334.421 52.4414 287.258Z" fill="url(#paint13_linear)"/>
<path d="M640.008 685.481C640.008 685.481 534.755 756.183 417.289 748.836C417.289 748.836 464.483 753.985 546.923 722.718C594.418 704.772 615.455 695.814 640.008 685.481Z" fill="#FABE28" fill-opacity="0.6"/>
<path d="M614.138 673.811C614.138 673.811 468.361 739.813 360.104 693.489C360.104 693.489 423.388 715.622 508.824 696.373C576.393 681.022 614.138 673.811 614.138 673.811Z" fill="#FABE28" fill-opacity="0.6"/>
<path d="M576.617 653.968C576.617 653.968 454.535 701.782 348.983 673.548C348.983 673.548 412.794 683.373 499.115 667.263C531.987 661.165 576.617 653.968 576.617 653.968Z" fill="#FABE28" fill-opacity="0.6"/>
<path d="M287.062 634.113C287.062 634.113 410.23 680.623 551.742 636.709C551.742 636.709 492.142 642.474 434.648 646.979C365.884 652.416 287.062 634.113 287.062 634.113Z" fill="#FABE28" fill-opacity="0.6"/>
<path d="M267.137 610.103C267.137 610.103 369.097 654.946 516.766 616.364C516.766 616.364 467.805 615.074 423.179 622.812C378.552 630.55 331.53 626.972 267.137 610.103Z" fill="#FABE28" fill-opacity="0.6"/>
<path d="M246.42 580.568C246.42 580.568 383.833 634.369 481.015 593.205C481.015 593.205 453.221 596.13 394.157 600.807C315.151 607.008 246.42 580.568 246.42 580.568Z" fill="#FABE28" fill-opacity="0.6"/>
<path d="M221.829 556.152C221.829 556.152 344.297 594.209 448.201 571.763C448.201 571.763 406.777 570.809 350.941 571.13C288.543 571.327 242.782 560.802 221.829 556.152Z" fill="#FABE28" fill-opacity="0.6"/>
<path d="M165.54 515.166C165.54 515.166 291.103 572.992 408.026 542.502C408.026 542.502 378.795 540.665 336.257 543.891C277.41 548.676 227.501 533.404 165.54 515.166Z" fill="#FABE28" fill-opacity="0.6"/>
<path d="M109.134 473.314C109.134 473.314 260.864 546.874 383.227 519.605C383.227 519.605 338.918 516.554 306.346 518.205C273.611 519.911 194.866 505.564 109.134 473.314Z" fill="#FABE28" fill-opacity="0.6"/>
<path d="M95.7725 421.726C95.7725 421.726 202.861 509.909 359.207 500.064C359.207 500.064 352.316 498.965 281.734 489.993C211.152 481.021 157.264 462.031 95.7725 421.726Z" fill="#FABE28" fill-opacity="0.6"/>
<path d="M117.025 412.876C117.025 412.876 268.112 487.741 336.861 479.592C336.861 479.592 317.363 473.362 264.336 462.77C205.285 450.967 178.696 437.187 117.025 412.876Z" fill="#FABE28" fill-opacity="0.6"/>
<path d="M54.9805 351.756C54.9805 351.756 228.628 456.253 308.106 456.772C308.106 456.772 266.62 444.975 208.006 424.333C158.302 407 54.9805 351.756 54.9805 351.756Z" fill="#FABE28" fill-opacity="0.6"/>
<path d="M53.8164 328.614C53.8164 328.614 204.223 426.523 294.762 436.681C294.762 436.681 268.363 427.726 217.127 408.016C165.892 388.307 109.614 359.085 53.8164 328.614Z" fill="#FABE28" fill-opacity="0.6"/>
<path d="M52.4414 287.258C52.4414 287.258 133.609 364.694 267.71 408.213C267.71 408.213 229.13 392.714 188.779 370.936C148.428 349.158 109.202 334.421 52.4414 287.258Z" fill="#FABE28" fill-opacity="0.6"/>
<path d="M43.7959 245.293C43.7959 245.293 149.482 334.677 228.299 361.492C228.299 361.492 189.255 331.304 158.307 313.755C127.359 296.205 80.8276 274.355 43.7959 245.293Z" fill="url(#paint14_linear)"/>
<path d="M43.7959 245.293C43.7959 245.293 149.482 334.677 228.299 361.492C228.299 361.492 187.908 342.263 155.312 320.928C125.709 301.473 80.8276 274.355 43.7959 245.293Z" fill="#FABE28" fill-opacity="0.6"/>
<path d="M53.8975 201.486C53.8975 201.486 121.146 290.712 201.425 326.626C201.425 326.626 191.935 316.814 163.832 294.315C135.729 271.816 94.4075 250.911 53.8975 201.486Z" fill="url(#paint15_linear)"/>
<path d="M53.8975 201.486C53.8975 201.486 121.146 290.712 201.425 326.626C201.425 326.626 183.32 317.568 155.217 295.069C127.114 272.57 94.4075 250.911 53.8975 201.486Z" fill="#FABE28" fill-opacity="0.6"/>
<path d="M140.164 156.969C140.164 156.969 211.162 275.882 224.916 357.934C224.916 357.934 201.463 314.482 189.236 281.158C177.009 247.834 162.738 198.366 140.164 156.969Z" fill="url(#paint16_linear)"/>
<path d="M140.164 156.969C140.164 156.969 211.162 275.882 224.916 357.934C224.916 357.934 212.471 314.907 196.761 279.326C182.317 246.936 162.738 198.366 140.164 156.969Z" fill="#FABE28" fill-opacity="0.6"/>
<path d="M103.172 134.412C103.172 134.412 179.851 223.15 190.705 309.99C190.705 309.99 183.102 298.27 167.895 265.233C152.688 232.197 144.295 186.707 103.172 134.412Z" fill="url(#paint17_linear)"/>
<path d="M103.172 134.412C103.172 134.412 179.851 223.15 190.705 309.99C190.705 309.99 187.23 290.168 171.968 256.97C156.706 223.771 144.295 186.707 103.172 134.412Z" fill="#FABE28" fill-opacity="0.6"/>
<path d="M190.384 310.642C190.384 310.642 116.777 246.933 69.1318 154.125C69.1318 154.125 161.202 251.394 190.384 310.642Z" fill="url(#paint18_linear)"/>
<path d="M190.384 310.642C190.384 310.642 116.777 246.933 69.1318 154.125C69.1318 154.125 139.037 252.768 190.384 310.642Z" fill="#FABE28" fill-opacity="0.6"/>
<path d="M665.941 697.854C665.941 697.854 681.429 638.457 645.606 546.339C645.606 546.339 653.998 600.883 653.848 631.351C653.515 667.675 664.078 694.504 665.941 697.854Z" fill="url(#paint19_linear)"/>
<path d="M665.94 697.854C665.94 697.854 682.268 643.06 645.988 546.934C645.988 546.934 660.356 603.611 661.214 639.712C661.566 663.129 665.29 688.479 665.94 697.854Z" fill="#FABE28" fill-opacity="0.6"/>
<path d="M639.28 681.202C639.28 681.202 647.171 554.679 581.392 456.987C581.392 456.987 614.882 511.332 618.065 574.525C621.196 638.098 631.518 670.078 639.28 681.202Z" fill="url(#paint20_linear)"/>
<path d="M639.5 681.851C639.5 681.851 647.392 555.328 581.612 457.636C581.612 457.636 609.75 495.694 624.672 582.782C633.091 632.609 636.04 655.144 639.5 681.851Z" fill="#FABE28" fill-opacity="0.6"/>
<path d="M615.946 667.946C615.946 667.946 616.438 508.451 529.674 428.933C529.674 428.933 574.677 477.194 586.833 564.135C599.041 650.696 615.946 667.946 615.946 667.946Z" fill="url(#paint21_linear)"/>
<path d="M616.111 668.432C616.111 668.432 616.382 508.288 529.618 428.77C529.618 428.77 575.816 477.349 593.387 563.174C607.222 631.077 616.111 668.432 616.111 668.432Z" fill="#FABE28" fill-opacity="0.6"/>
<path d="M577.696 652.879C577.696 652.879 578.246 522.332 513.714 434.175C513.714 434.175 545.82 511.622 554.926 577.329C560.75 618.985 577.696 652.879 577.696 652.879Z" fill="url(#paint22_linear)"/>
<path d="M578.024 653.309C578.024 653.309 578.408 522.276 513.821 433.956C513.821 433.956 546.074 489.989 562.291 576.093C568.445 609.127 578.024 653.309 578.024 653.309Z" fill="#FABE28" fill-opacity="0.6"/>
<path d="M445.099 390.495C445.099 390.495 535.852 484.952 551.175 632.376C551.175 632.376 521.25 585.329 505.249 517.981C489.141 450.85 445.099 390.495 445.099 390.495Z" fill="url(#paint23_linear)"/>
<path d="M445.099 390.495C445.099 390.495 536.235 485.546 551.396 633.025C551.396 633.025 533.448 575.934 515.026 521.177C492.802 455.763 445.099 390.495 445.099 390.495Z" fill="#FABE28" fill-opacity="0.6"/>
<path d="M415.963 386.271C415.963 386.271 496.693 462.95 518.163 614.079C518.163 614.079 489.075 571.094 478.954 526.915C468.671 482.791 456.384 439.166 415.963 386.271Z" fill="url(#paint24_linear)"/>
<path d="M415.963 386.271C415.963 386.271 496.693 462.95 518.163 614.079C518.163 614.079 498.119 569.469 487.781 525.183C477.715 481.167 456.384 439.166 415.963 386.271Z" fill="#FABE28" fill-opacity="0.6"/>
<path d="M389.531 371.895C389.531 371.895 486.237 483.341 480.175 588.602C480.175 588.602 458.438 551.266 444.37 490.141C430.302 429.017 389.531 371.895 389.531 371.895Z" fill="url(#paint25_linear)"/>
<path d="M389.752 372.544C389.752 372.544 486.458 483.99 480.396 589.251C480.396 589.251 473.897 562.128 458.28 504.97C437.509 428.379 389.752 372.544 389.752 372.544Z" fill="#FABE28" fill-opacity="0.6"/>
<path d="M375.2 349.425C375.2 349.425 440.457 459.967 442.533 566.266C442.533 566.266 422.398 534.179 411.528 472.874C400.547 411.243 384.69 368.832 375.2 349.425Z" fill="url(#paint26_linear)"/>
<path d="M375.365 349.912C375.365 349.912 440.622 460.455 442.698 566.753C442.698 566.753 432.274 526.479 419.656 472.285C405.536 411.54 384.855 369.319 375.365 349.912Z" fill="#FABE28" fill-opacity="0.6"/>
<path d="M343.774 305.423C343.774 305.423 420.551 420.561 408.503 540.711C408.503 540.711 394.797 514.226 391.028 471.691C387.26 429.156 371.379 363.759 343.774 305.423Z" fill="url(#paint27_linear)"/>
<path d="M343.833 306.127C343.833 306.127 420.61 421.266 408.562 541.415C408.562 541.415 402.109 512.828 398.882 470.29C394.367 411.171 371.6 364.408 343.833 306.127Z" fill="#FABE28" fill-opacity="0.6"/>
<path d="M299.803 257.535C299.803 257.535 393.909 397.566 383.84 522.475C383.84 522.475 365.551 481.433 362.598 448.76C359.862 416.194 343.799 338.004 299.803 257.535Z" fill="url(#paint28_linear)"/>
<path d="M300.025 258.184C300.025 258.184 394.13 398.215 384.061 523.124C384.061 523.124 374.758 479.753 371.805 447.08C369.069 414.514 343.965 338.491 300.025 258.184Z" fill="#FABE28" fill-opacity="0.6"/>
<path d="M259.438 242.642C259.438 242.642 354.777 342.603 356.221 499.268C356.221 499.268 347.467 494.819 333.567 425.128C319.667 355.436 306.471 313.932 259.438 242.642Z" fill="url(#paint29_linear)"/>
<path d="M259.438 242.642C259.438 242.642 354.835 343.307 356.279 499.973C356.279 499.973 354.667 493.097 340.767 423.406C326.867 353.714 303.848 300.882 259.438 242.642Z" fill="#FABE28" fill-opacity="0.6"/>
<path d="M254.474 256.278C254.474 256.278 336.911 403.532 332.104 472.518C332.104 472.518 313.029 445.684 299.746 389C286.463 332.316 281.874 316.676 254.474 256.278Z" fill="url(#paint30_linear)"/>
<path d="M254.474 256.278C254.474 256.278 336.911 403.532 332.104 472.518C332.104 472.518 324.837 453.26 311.579 400.913C296.877 342.72 281.873 316.676 254.474 256.278Z" fill="#FABE28" fill-opacity="0.6"/>
<path d="M202.305 206.107C202.305 206.107 310.361 377.609 312.391 457.126C312.391 457.126 283.041 396.849 268.221 346.3C253.401 295.751 202.305 206.107 202.305 206.107Z" fill="url(#paint31_linear)"/>
<path d="M202.305 206.107C202.305 206.107 310.361 377.609 312.391 457.126C312.391 457.126 299.63 415.836 278.044 357.628C259.653 308.292 202.305 206.107 202.305 206.107Z" fill="#FABE28" fill-opacity="0.6"/>
<path d="M154.441 160.085C154.441 160.085 251.268 311.322 260.842 401.855C260.842 401.855 246.224 376.948 226.792 325.612C207.359 274.276 184.582 216.292 154.441 160.085Z" fill="url(#paint32_linear)"/>
<path d="M154.441 160.085C154.441 160.085 251.268 311.322 260.842 401.855C260.842 401.855 252.071 375.505 232.746 323.951C213.42 272.398 184.582 216.292 154.441 160.085Z" fill="#FABE28" fill-opacity="0.6"/>
<path d="M188.378 207.217C188.378 207.217 258.399 297.674 289.225 435.304C289.225 435.304 270.036 398.008 252.283 355.879C234.312 313.642 229.875 268.075 188.378 207.217Z" fill="url(#paint33_linear)"/>
<path d="M188.378 207.217C188.378 207.217 258.399 297.674 289.225 435.304C289.225 435.304 276.73 393.199 258.922 350.907C240.952 308.671 229.875 268.075 188.378 207.217Z" fill="#FABE28" fill-opacity="0.6"/>
<path d="M725.773 732.748C725.773 732.748 347.082 578.959 190.116 311.457C188.036 308 188.89 305.718 186.972 302.205C186.972 302.205 334.961 564.066 741.104 721.383L725.773 732.748Z" fill="url(#paint34_linear)"/>
</g>
<defs>
<linearGradient id="paint0_linear" x1="497.893" y1="784.909" x2="558.398" y2="649.209" gradientUnits="userSpaceOnUse">
<stop stop-color="#54B948"/>
<stop offset="0.3764" stop-color="#00A651"/>
<stop offset="1" stop-color="#005826"/>
</linearGradient>
<linearGradient id="paint1_linear" x1="462.157" y1="738.941" x2="511.492" y2="628.294" gradientUnits="userSpaceOnUse">
<stop stop-color="#54B948"/>
<stop offset="0.3764" stop-color="#00A651"/>
<stop offset="1" stop-color="#005826"/>
</linearGradient>
<linearGradient id="paint2_linear" x1="440.08" y1="714.082" x2="484.993" y2="613.351" gradientUnits="userSpaceOnUse">
<stop stop-color="#54B948"/>
<stop offset="0.3764" stop-color="#00A651"/>
<stop offset="1" stop-color="#005826"/>
</linearGradient>
<linearGradient id="paint3_linear" x1="397.789" y1="683.337" x2="440.608" y2="587.303" gradientUnits="userSpaceOnUse">
<stop stop-color="#54B948"/>
<stop offset="0.3764" stop-color="#00A651"/>
<stop offset="1" stop-color="#005826"/>
</linearGradient>
<linearGradient id="paint4_linear" x1="372.45" y1="657.023" x2="411.546" y2="569.34" gradientUnits="userSpaceOnUse">
<stop stop-color="#54B948"/>
<stop offset="0.3764" stop-color="#00A651"/>
<stop offset="1" stop-color="#005826"/>
</linearGradient>
<linearGradient id="paint5_linear" x1="346.102" y1="625.254" x2="380.311" y2="548.531" gradientUnits="userSpaceOnUse">
<stop stop-color="#54B948"/>
<stop offset="0.3764" stop-color="#00A651"/>
<stop offset="1" stop-color="#005826"/>
</linearGradient>
<linearGradient id="paint6_linear" x1="318.486" y1="599.488" x2="350.251" y2="528.245" gradientUnits="userSpaceOnUse">
<stop stop-color="#54B948"/>
<stop offset="0.3764" stop-color="#00A651"/>
<stop offset="1" stop-color="#005826"/>
</linearGradient>
<linearGradient id="paint7_linear" x1="271.181" y1="562.445" x2="301.202" y2="495.114" gradientUnits="userSpaceOnUse">
<stop stop-color="#54B948"/>
<stop offset="0.3764" stop-color="#00A651"/>
<stop offset="1" stop-color="#005826"/>
</linearGradient>
<linearGradient id="paint8_linear" x1="231.386" y1="528.212" x2="259.696" y2="464.719" gradientUnits="userSpaceOnUse">
<stop stop-color="#54B948"/>
<stop offset="0.3764" stop-color="#00A651"/>
<stop offset="1" stop-color="#005826"/>
</linearGradient>
<linearGradient id="paint9_linear" x1="216.212" y1="485.769" x2="234.807" y2="444.064" gradientUnits="userSpaceOnUse">
<stop stop-color="#54B948"/>
<stop offset="0.3764" stop-color="#00A651"/>
<stop offset="1" stop-color="#005826"/>
</linearGradient>
<linearGradient id="paint10_linear" x1="220.924" y1="459.761" x2="233.117" y2="432.415" gradientUnits="userSpaceOnUse">
<stop stop-color="#54B948"/>
<stop offset="0.3764" stop-color="#00A651"/>
<stop offset="1" stop-color="#005826"/>
</linearGradient>
<linearGradient id="paint11_linear" x1="178.379" y1="417.128" x2="185.053" y2="402.16" gradientUnits="userSpaceOnUse">
<stop stop-color="#54B948"/>
<stop offset="0.3764" stop-color="#00A651"/>
<stop offset="1" stop-color="#005826"/>
</linearGradient>
<linearGradient id="paint12_linear" x1="169.309" y1="393.874" x2="174.932" y2="381.261" gradientUnits="userSpaceOnUse">
<stop stop-color="#54B948"/>
<stop offset="0.3764" stop-color="#00A651"/>
<stop offset="1" stop-color="#005826"/>
</linearGradient>
<linearGradient id="paint13_linear" x1="154.429" y1="361.577" x2="165.173" y2="337.481" gradientUnits="userSpaceOnUse">
<stop stop-color="#54B948"/>
<stop offset="0.3764" stop-color="#00A651"/>
<stop offset="1" stop-color="#005826"/>
</linearGradient>
<linearGradient id="paint14_linear" x1="129.374" y1="318.382" x2="142.402" y2="289.162" gradientUnits="userSpaceOnUse">
<stop stop-color="#54B948"/>
<stop offset="0.3764" stop-color="#00A651"/>
<stop offset="1" stop-color="#005826"/>
</linearGradient>
<linearGradient id="paint15_linear" x1="116.621" y1="288.882" x2="138.711" y2="239.34" gradientUnits="userSpaceOnUse">
<stop stop-color="#54B948"/>
<stop offset="0.3764" stop-color="#00A651"/>
<stop offset="1" stop-color="#005826"/>
</linearGradient>
<linearGradient id="paint16_linear" x1="198.471" y1="253.351" x2="167.525" y2="261.467" gradientUnits="userSpaceOnUse">
<stop stop-color="#54B948"/>
<stop offset="0.3764" stop-color="#00A651"/>
<stop offset="1" stop-color="#005826"/>
</linearGradient>
<linearGradient id="paint17_linear" x1="179.385" y1="218.284" x2="114.522" y2="226.275" gradientUnits="userSpaceOnUse">
<stop stop-color="#54B948"/>
<stop offset="0.3764" stop-color="#00A651"/>
<stop offset="1" stop-color="#005826"/>
</linearGradient>
<linearGradient id="paint18_linear" x1="110.733" y1="275.041" x2="148.826" y2="189.607" gradientUnits="userSpaceOnUse">
<stop stop-color="#54B948"/>
<stop offset="0.3764" stop-color="#00A651"/>
<stop offset="1" stop-color="#005826"/>
</linearGradient>
<linearGradient id="paint19_linear" x1="688.236" y1="576.916" x2="623.427" y2="667.361" gradientUnits="userSpaceOnUse">
<stop stop-color="#54B948"/>
<stop offset="0.3764" stop-color="#00A651"/>
<stop offset="1" stop-color="#005826"/>
</linearGradient>
<linearGradient id="paint20_linear" x1="653.615" y1="508.711" x2="567.075" y2="629.483" gradientUnits="userSpaceOnUse">
<stop stop-color="#54B948"/>
<stop offset="0.3764" stop-color="#00A651"/>
<stop offset="1" stop-color="#005826"/>
</linearGradient>
<linearGradient id="paint21_linear" x1="613.007" y1="503.219" x2="532.444" y2="593.692" gradientUnits="userSpaceOnUse">
<stop stop-color="#54B948"/>
<stop offset="0.3764" stop-color="#00A651"/>
<stop offset="1" stop-color="#005826"/>
</linearGradient>
<linearGradient id="paint22_linear" x1="584.675" y1="504.221" x2="507.027" y2="582.551" gradientUnits="userSpaceOnUse">
<stop stop-color="#54B948"/>
<stop offset="0.3764" stop-color="#00A651"/>
<stop offset="1" stop-color="#005826"/>
</linearGradient>
<linearGradient id="paint23_linear" x1="533.876" y1="472.968" x2="462.333" y2="550.021" gradientUnits="userSpaceOnUse">
<stop stop-color="#54B948"/>
<stop offset="0.3764" stop-color="#00A651"/>
<stop offset="1" stop-color="#005826"/>
</linearGradient>
<linearGradient id="paint24_linear" x1="499.947" y1="465.2" x2="434.191" y2="535.143" gradientUnits="userSpaceOnUse">
<stop stop-color="#54B948"/>
<stop offset="0.3764" stop-color="#00A651"/>
<stop offset="1" stop-color="#005826"/>
</linearGradient>
<linearGradient id="paint25_linear" x1="465.2" y1="451.308" x2="404.412" y2="509.283" gradientUnits="userSpaceOnUse">
<stop stop-color="#54B948"/>
<stop offset="0.3764" stop-color="#00A651"/>
<stop offset="1" stop-color="#005826"/>
</linearGradient>
<linearGradient id="paint26_linear" x1="439.89" y1="434.062" x2="377.889" y2="481.389" gradientUnits="userSpaceOnUse">
<stop stop-color="#54B948"/>
<stop offset="0.3764" stop-color="#00A651"/>
<stop offset="1" stop-color="#005826"/>
</linearGradient>
<linearGradient id="paint27_linear" x1="407.005" y1="403" x2="345.158" y2="443.111" gradientUnits="userSpaceOnUse">
<stop stop-color="#54B948"/>
<stop offset="0.3764" stop-color="#00A651"/>
<stop offset="1" stop-color="#005826"/>
</linearGradient>
<linearGradient id="paint28_linear" x1="371.487" y1="371.48" x2="312.577" y2="408.395" gradientUnits="userSpaceOnUse">
<stop stop-color="#54B948"/>
<stop offset="0.3764" stop-color="#00A651"/>
<stop offset="1" stop-color="#005826"/>
</linearGradient>
<linearGradient id="paint29_linear" x1="331.74" y1="358.048" x2="291.451" y2="379.534" gradientUnits="userSpaceOnUse">
<stop stop-color="#54B948"/>
<stop offset="0.3764" stop-color="#00A651"/>
<stop offset="1" stop-color="#005826"/>
</linearGradient>
<linearGradient id="paint30_linear" x1="306.387" y1="357.797" x2="279.686" y2="371.339" gradientUnits="userSpaceOnUse">
<stop stop-color="#54B948"/>
<stop offset="0.3764" stop-color="#00A651"/>
<stop offset="1" stop-color="#005826"/>
</linearGradient>
<linearGradient id="paint31_linear" x1="268.91" y1="326.284" x2="254.077" y2="333.252" gradientUnits="userSpaceOnUse">
<stop stop-color="#54B948"/>
<stop offset="0.3764" stop-color="#00A651"/>
<stop offset="1" stop-color="#005826"/>
</linearGradient>
<linearGradient id="paint32_linear" x1="218.887" y1="276.067" x2="206.233" y2="281.597" gradientUnits="userSpaceOnUse">
<stop stop-color="#54B948"/>
<stop offset="0.3764" stop-color="#00A651"/>
<stop offset="1" stop-color="#005826"/>
</linearGradient>
<linearGradient id="paint33_linear" x1="235.671" y1="300.957" x2="281.119" y2="408.816" gradientUnits="userSpaceOnUse">
<stop stop-color="#54B948"/>
<stop offset="0.3764" stop-color="#00A651"/>
<stop offset="1" stop-color="#005826"/>
</linearGradient>
<linearGradient id="paint34_linear" x1="378.164" y1="480.152" x2="818.028" y2="695.275" gradientUnits="userSpaceOnUse">
<stop stop-color="#54B948"/>
<stop offset="0.3764" stop-color="#00A651"/>
<stop offset="1" stop-color="#005826"/>
</linearGradient>
</defs>
</svg>
